<?xml version="1.0" standalone="no"?>
<!DOCTYPE svg PUBLIC "-//W3C//DTD SVG 1.1//EN" "http://www.w3.org/Graphics/SVG/1.1/DTD/svg11.dtd" >
<svg>
<metadata>
Created by FontForge 20090914 at Fri Feb 24 12:24:07 2012
 By root
Grinched&#194;&#169; High-Logic. 1999, 2000. All Rights Reserved
</metadata>
<defs>
<font id="Grinched" horiz-adv-x="636" >
  <font-face 
    font-family="Grinched"
    font-weight="400"
    font-stretch="normal"
    units-per-em="2048"
    panose-1="2 0 0 0 0 0 0 0 0 0"
    ascent="1638"
    descent="-410"
    x-height="1102"
    cap-height="1689"
    bbox="-1730 -423 1280 1864"
    underline-thickness="48"
    underline-position="-140"
    unicode-range="U+0020-U+F002"
  />
<missing-glyph horiz-adv-x="1119" 
d="M256 0v1280h1024v-1280h-1024zM284 25h960v1216h-960v-1216z" />
    <glyph glyph-name=".notdef" horiz-adv-x="1119" 
d="M256 0v1280h1024v-1280h-1024zM284 25h960v1216h-960v-1216z" />
    <glyph glyph-name=".null" horiz-adv-x="0" 
 />
    <glyph glyph-name="nonmarkingreturn" horiz-adv-x="390" 
 />
    <glyph glyph-name="space" unicode=" " horiz-adv-x="390" 
 />
    <glyph glyph-name="exclam" unicode="!" horiz-adv-x="668" 
d="M-151 1777q-3 -25 -14 -64v-8q-9 -22 -9 -42l-5 -22q-3 -6 -4.5 -11.5t-3.5 -19.5q-3 -22 -9 -39l-3 -11v-11l-2 -5l-3 -20q-8 -19 -8 -36l-9 -31l-3 -13l-2 -12v-11l-3 -5l-3 -20q-8 -19 -8 -36l-11 -41l-3 -14l-11 -50v-11q-9 -28 -10 -33.5t-4 -19.5q-3 -23 -8 -39
q0 -9 -3 -11v-11l-20 -81l-2 -19q-3 -17 -9 -31l-5 -31l-3 -8q-3 -22 -8 -36l-17 -81q-3 -19 -9 -33l-5 -31l-3 -8l-3 -17q-2 -22 -8 -36q0 -11 -6 -25l-11 -50l-2 -16l-12 -56l-5 -19l-11 -50q-6 -37 -14 -62v-11q-8 -22 -14 -53l-11 -50v-8q-8 -22 -8 -42l16 -5l11 -3
l17 -8q14 -3 22 -9l31 -8l22 -8q20 -9 33 -11l37 86l2 11l34 83l5 9l6 19l50 122l8 20l8 25l6 8q3 14 8 22l23 53l2 11l48 120q8 14 11 25l33 80l8 20l14 36l9 19l5 20q9 14 11 22l50 125l3 11l142 353l5 9q3 13 9 22l8 19q3 17 11 28v17l-16 11l-9 3l-86 50q-8 2 -11 5
l-64 36q-19 9 -31 17l-8 3l-50 28l-5 5l-76 42l-16 3zM-615 -1q0 -123 108 -156q211 -33 220 169q-45 139 -181 134q-136 -25 -147 -147z" />
    <glyph glyph-name="quotedbl" unicode="&#x22;" horiz-adv-x="873" 
d="M165 1693l113 -3q16 -4 28 -2l62 -2l10 -45l2 -16v-84q-29 -276 -319 -298q151 180 70 274l-35 -7q-27 -4 -45 -4l2 11l2 22v14l4 29v12l2 17l2 14l2 16v13q4 24 4 41h90zM-255 1692l113 -2q16 -4 28 -2l62 -2l10 -45l2 -16v-84q-29 -276 -319 -299q151 180 69 275
l-34 -7q-27 -4 -45 -4l2 11l2 22v14l4 29v12l2 17l2 14l2 16v13q4 24 4 40h90z" />
    <glyph glyph-name="numbersign" unicode="#" 
 />
    <glyph glyph-name="dollar" unicode="$" horiz-adv-x="885" 
d="M-1262 950l3 -7q5 -32 16 -53q112 -245 417 -267l13 -4l31 -9q36 -11 59 -22q52 -26 62 -71l-1 -4q-5 -22 -16 -39q-210 -203 -472 -36l-13 -47q-1 -16 -6 -25v-5l-9 -30v-5l-7 -19v-6l-3 -10l-9 -31q6 -8 14 -12q233 -84 432 -28q145 35 218 129q159 259 -157 402l-17 7
l-7 2l-30 13l-5 1l-9 3q-18 7 -30 13q-239 69 -216 182q33 56 98 78l15 2l68 3l9 1l8 -2q11 1 27 -1q17 -1 20 -2q18 0 31 -3h7l38 -4l3 4q13 15 26 33l25 36q7 12 16 19q7 12 12 17l7 11q10 13 16 22l-5 14q-124 100 -332 55l-137 -37q-206 -91 -210 -268zM-922 1372
q3 -21 5 -55l1 -7q0 -20 3 -36l2 -20q-1 -5 -0.5 -10t1.5 -17q2 -18 3 -34v-10l2 -9v-4l2 -17q0 -18 2 -32l2 -27l1 -12l1 -10l1 -9v-5l2 -17q0 -17 2 -31l2 -36l1 -12l4 -44l2 -9q0 -25 0.5 -30t1.5 -17q3 -19 3 -33q2 -8 1 -10l1 -9l5 -71l2 -16q2 -15 2 -28l3 -26v-8
q2 -18 2 -31l6 -70q2 -16 2 -30l2 -26l1 -7l1 -15q3 -18 2 -31q2 -9 2 -22l3 -44l2 -13l4 -49l1 -17l4 -43q3 -32 4 -54l1 -9q1 -20 3 -47l4 -43l1 -7q0 -20 3 -36l7 1l5 1l7 -1q6 2 10 0l13 4l9 1q9 -1 14 1l1 81l-1 10v77l1 9l-1 17l1 114l-1 18v23l1 8q-1 12 -1 20l1 50
l-1 10v111q1 14 0 24l1 74l-1 19v33l1 18l-1 18q1 14 0 21v116v10l-1 328l1 9q-1 11 0 20v18q-1 15 0 26l-3 14l-7 3h-4l-40 12q-3 -1 -5 0l-29 9q-9 1 -15 3h-3l-23 6l-3 3l-35 9l-6 -3z" />
    <glyph glyph-name="percent" unicode="%" 
 />
    <glyph glyph-name="ampersand" unicode="&#x26;" horiz-adv-x="486" 
 />
    <glyph glyph-name="quotesingle" unicode="'" horiz-adv-x="515" 
d="M-255 1692l113 -2q16 -4 28 -2l62 -2l10 -45l2 -16v-84q-29 -276 -319 -299q151 180 69 275l-34 -7q-27 -4 -45 -4l2 11l2 22v14l4 29v12l2 17l2 14l2 16v13q4 24 4 40h90z" />
    <glyph glyph-name="parenleft" unicode="(" horiz-adv-x="336" 
 />
    <glyph glyph-name="parenright" unicode=")" horiz-adv-x="384" 
 />
    <glyph glyph-name="asterisk" unicode="*" horiz-adv-x="492" 
 />
    <glyph glyph-name="plus" unicode="+" 
 />
    <glyph glyph-name="comma" unicode="," horiz-adv-x="237" 
 />
    <glyph glyph-name="hyphen" unicode="-" horiz-adv-x="875" 
d="M-559 912l-40 -5l-4 3l-42 -4l-5 1l-41 -3l-10 1l-38 -4l-3 3l-44 -6l-5 3l-42 -4q-19 3 -32 -1h-22l-40 -4q-12 5 -20 1l-15 -2q-18 1 -29 -1l-22 -2q-7 -1 -12 2l-32 -4q-8 0 -12 2l-39 -5l-9 3l-37 -5q-18 2 -29 0l-22 -3l-7 3l-85 -9l-21 -161l771 -109l-1 308z" />
    <glyph glyph-name="hyphen" unicode="&#x2010;" horiz-adv-x="875" 
d="M-559 912l-40 -5l-4 3l-42 -4l-5 1l-41 -3l-10 1l-38 -4l-3 3l-44 -6l-5 3l-42 -4q-19 3 -32 -1h-22l-40 -4q-12 5 -20 1l-15 -2q-18 1 -29 -1l-22 -2q-7 -1 -12 2l-32 -4q-8 0 -12 2l-39 -5l-9 3l-37 -5q-18 2 -29 0l-22 -3l-7 3l-85 -9l-21 -161l771 -109l-1 308z" />
    <glyph glyph-name="period" unicode="." horiz-adv-x="457" 
d="M-110 341q-30 -154 151 -169q187 -5 187 149q-48 122 -194 111q-100 -13 -144 -91z" />
    <glyph glyph-name="slash" unicode="/" horiz-adv-x="357" 
 />
    <glyph glyph-name="zero" unicode="0" horiz-adv-x="1075" 
d="M-281 1736l-18 -2l-24 -8l-21 -7l-48 -24l-6 -6l-28 -15q-14 -8 -24 -16l-85 -72q-10 -14 -25 -28l-12 -14l-50 -62q-9 -17 -19 -28l-18 -29l-4 -8q-8 -14 -12 -22l-13 -20l-3 -8q-9 -14 -13 -22l-19 -44l-6 -8q-11 -31 -19 -47l-4 -11l-23 -61q-4 -22 -13 -47l-3 -11
l-8 -28l-3 -17l-7 -19l-11 -69l-3 -6q-2 -31 -9 -50l-2 -89q-22 -276 91 -498l5 -6l20 -34l8 -9l23 -31l42 -43q46 -39 88 -54l23 -9q20 -9 35 -13l124 -3l45 12q14 2 33 10q23 8 39 15q205 125 307 317q258 508 92 987l-6 8l-9 18l-7 16l-14 29l-14 20l-39 54l-52 50
l-78 47l-61 19l-112 4zM-193 1265l12 -25q8 -16 10 -26q14 -35 19 -59q64 -443 -164 -728q-35 -29 -74 -35q-26 1 -47 13q-32 32 -51 66q-8 27 -17 42q-2 16 -8 26l-17 109q0 28 -1 48l3 129q27 306 195 480l42 18q64 -3 98 -58z" />
    <glyph glyph-name="one" unicode="1" horiz-adv-x="455" 
d="M-35 1693q5 -17 2 -33l3 -44l2 -68q0 -13 2 -21v-38l2 -20q-2 -29 2 -49v-46l2 -5l2 -96q0 -8 2 -10l3 -90l2 -22v-46l2 -6l2 -95l2 -22l6 -190l3 -9l4 -141q0 -14 2 -22l6 -196l2 -16v-49l3 -17l2 -90q4 -16 2 -27v-22l2 -10l2 -71h123l3 13q0 22 4 52v22l2 11l2 24
q0 14 2 22q0 16 2 27v19l2 6q0 30 5 49l2 30l2 43q6 44 6 68l5 47q0 27 6 68v19q4 30 4 49l2 30q5 24 5 43l2 14l2 43l2 14v11l2 19l2 19l2 30v8q5 33 7 74l2 13q0 19 2 49q4 30 4 52l2 16l3 17v16l2 22l2 19l2 16v14q0 8 2 11v16q4 33 6 74l3 21v17l2 5v19l2 8v17l2 5l2 30
q0 19 2 33l2 19v16l2 6l3 30l2 24v19q2 8 2 16.5t2 10.5l2 38l2 20v49l-42 8q-15 2 -34 5l-17 3l-15 3l-11 2l-15 3l-10 3q-15 2 -23.5 3.5t-23.5 4.5h-9q-13 5 -32 8h-8l-13 3q-38 8 -64 8v-95z" />
    <glyph glyph-name="two" unicode="2" horiz-adv-x="1130" 
d="M-637 1800l-28 -5l-58 -21q-281 -166 -297 -490l29 -2h23q16 -3 26 -3l34 -3q21 0 37 -2l78 -3q65 196 240 175q169 -68 185 -279q18 -287 -201 -365h-39q-29 8 -47 8q0 -8 -3 -26l-5 -18v-8l-5 -21q0 -11 -5 -29l-3 -13q0 -10 -2.5 -18t-5.5 -26l-2 -18l-6 -24
q-2 -23 -13 -57v-16q-2 -8 -5 -23l-2 -21l-6 -42l-2 -10l-3 -19l-5 -36l-3 -10v-13l-2 -8q0 -21 -5 -34l-3 -18l-3 -16q0 -16 -2 -18q0 -11 -3 -26l-3 -21l-2 -18h42l5 -3h73l21 -3h73l5 -2h78l8 -3h78l8 -3h83l8 -2h55l29 -3h65q13 0 21 -2h78l10 -3h151v156l-2 13v45
q2 21 -3 39v65q0 18 -2 47l-58 -5l-21 -3l-18 -2q-13 0 -21 -3l-23 -3h-21q-10 -2 -29 -5h-18l-65 -8h-8q-23 -5 -63 -8h-15l-5 -2h-19l-7 -3h-16l-5 -2l-29 -3l-23 -3h-11q-34 -5 -57 -5l-11 -2q-15 0 -18 -3h-8l-18 -3h-16q-23 -5 -41 -2l2 13l3 10l13 42l3 16l7 28l3 13
l13 47l8 5q26 8 44 19l8 2q13 8 21 11l18 10q18 16 34 24q250 232 216 560q-39 430 -393 524h-115z" />
    <glyph glyph-name="three" unicode="3" horiz-adv-x="1180" 
d="M-431 1711l-9 -2q-27 -13 -46 -18l-22 -12q-5 -1 -19 -8l-18 -10l-61 -37l38 -140l122 33l21 2l34 10l18 1q28 8 49 8l9 2l121 13h34h31l17 1l47 -4h12l70 -10l7 -4q55 -11 89 -34l4 -5q27 -21 40 -47q6 -47 -11 -84l-13 -20l-7 -8l-16 -21l-14 -16q-15 -10 -22 -20
l-142 -96q-8 -2 -10 -6l-9 -2l-15 -10q-28 -10 -44 -20l-22 -9l-10 -6l-12 -3l-22 -9l-30 -13l-209 -62l59 -218q381 171 662 10l4 -5q19 -15 29 -30l24 -34l6 -21q9 -33 10 -58l-6 -37l-17 -48l-65 -89q-227 -197 -506 -216l42 -157q523 -41 775 361q95 181 43 352
q-56 185 -213 272q160 289 -55 500l-5 7l-42 32q-18 10 -26 16l-53 29q-309 117 -599 19q-27 -13 -47 -19z" />
    <glyph glyph-name="four" unicode="4" horiz-adv-x="988" 
d="M120 1831l-24 -8l-24 -8q-33 -6 -54 -16l-24 -6l-9 -40l-5 -38l-3 -8q-2 -30 -8 -49q0 -16 -5 -27l-3 -24l-8 -46v-8q-5 -16 -8 -45l-8 -35l-3 -25l-8 -46l-3 -10l-2 -22q-3 -11 -4.5 -20t-3.5 -23l-3 -19l-11 -59l-13 -5q-22 -3 -54 -11q-30 -6 -46 -11l-22 -3l-18 -5
l-54 -8v21l2 6v40l3 16v22l3 11v43q3 16 3 40q5 24 2 46q6 22 3 40l3 46l2 14l6 121l2 21l3 81h-38l-5 -2q-30 2 -49 -3l-94 -3q-21 -5 -38 -2l-18 -3l-62 -3q-3 -62 -3 -102l-3 -8v-54l-2 -22v-19q0 -32 -3 -54v-48l-3 -5v-49q0 -13 -3 -21v-60l-2 -5v-49q-6 -51 -3 -83
l-3 -14v-37q-2 -22 -2 -35v-33q0 -16 -3 -27v-118h38l10 3l267 8q22 0 38 2h35q40 3 67 0l-2 -21l-3 -6l-3 -19l-5 -37l-3 -6l-3 -16l-2 -24l-3 -16l-5 -30l-3 -8l-3 -19q0 -11 -2 -27l-8 -40l-11 -59l-3 -19l-8 -54l-3 -16l-16 -89l-3 -11q-2 -27 -8 -46q0 -21 -5 -35v-11
q-5 -16 -8 -40l-11 -67h455v153l-2 6l-6 568l11 3q22 0 38 2l124 3l-3 191q-3 6 -3 19q3 30 -2 49v54l-3 10q3 41 -3 68l-43 -8l-16 -6h-8l-30 -8h-8q-32 -11 -56 -11l-3 372l-3 14v148h-19z" />
    <glyph glyph-name="five" unicode="5" horiz-adv-x="1060" 
d="M-347 1824l-2 -17l-2 -14l-3 -17l-7 -60l-2 -12v-15l-3 -7l-2 -22l-3 -14l-4 -48q-3 -7 -3 -13t-2 -9v-14l-3 -10q0 -19 -4 -31v-7l-8 -56l-2 -19l-3 -17l-2 -14l-2 -14v-15q-3 -5 -3 -11t-2 -8l-7 -60v-10q-5 -19 -5 -34l-3 -4l-2 -27l-7 -53v-7l-5 -26v-8l-2 -19
q-10 -17 -10 -29q5 -7 9.5 -12t7 -9.5l6 -10.5t11.5 -18l41 -60l4 -5l44 -67q211 7 356 -118q115 -113 103 -260q-91 -380 -378 -60l-9 -24q-3 -12 -7 -19l-12 -44l-3 -9l-7 -22l-2 -10l-5 -9v-7l-5 -10l-7 -26q-5 -20 -12 -29l-5 -27q207 -149 430 -101q166 34 248 161
q89 142 38 291q0 5 -2 17l-5 10q-5 24 -12 41l-2 7q-10 14 -12 29q-183 356 -527 452l3 29l2 26l2 27l3 24v12l2 7l3 31l2 41l2 12v17l3 7v17l7 60l48 -19l10 -3l77 -28l14 -8l51 -17q24 -12 41 -16l52 -20l10 -2l10 -5l77 -29l16 -7l166 -60l5 -2l60 -22q0 10 3 26
q5 22 7 56l2 14l3 27l2 4v15l3 19l2 17l2 14l5 41l3 12l2 27l2 9v12l5 34l3 12l2 31q5 27 5 44q2 9 5 26l2 17v43l-19 3l-17 2l-19 2q-5 3 -11 3t-9 2h-9l-87 15q-7 0 -9 2h-15l-17 5q-9 0 -24 2l-19 3l-17 2l-17 5q-12 0 -19 2l-17 3l-16 2l-17 2l-29 5l-15 3l-14 2l-17 2
q-12 3 -29 5q-26 3 -43 7l-53 8l-14 2q-24 3 -56 10h-12l-7 2l-17 3l-14 2l-12 2l-24 3l-12 2l-12 3l-34 4q-7 0 -19 3l-27 5q-4 0 -16 2l-20 2q-29 8 -50 5z" />
    <glyph glyph-name="six" unicode="6" horiz-adv-x="1060" 
d="M38 1818l-29 -12l-7 -5q-15 -4 -24 -12l-7 -2l-85 -53l-5 -5l-45 -34l-12 -12q-20 -14 -29 -24l-41 -41l-5 -7l-17 -17l-2 -5l-51 -60l-12 -17l-12 -17l-12 -19l-10 -17l-5 -5l-7 -14q-14 -19 -22 -36l-36 -65l-5 -15l-33 -72q-8 -15 -10 -27l-5 -7l-5 -17
q-12 -26 -17 -43q-2 -12 -7 -19l-7 -27l-10 -26v-8l-9 -26v-7l-8 -20q-2 -17 -9 -38q-3 -15 -4 -21t-3 -8l-8 -41q-4 -12 -4 -22l-3 -5q-2 -21 -9 -58l-3 -9l-2 -17l-5 -34l-3 -9q-2 -20 -2 -32l-2 -7q0 -12 -3 -19q-2 -22 -2 -39l-3 -10v-21l-2 -10v-130l2 -17l3 -5l2 -12
l7 -24l3 -14q43 -114 125 -188q270 -217 591 -138q325 85 405 381q31 347 -294 492q-364 142 -658 -63q2 5 4 17l3 17l2 14l5 17l2 10l25 67l7 15l9 17l3 7l19 34q10 19 19 29l17 26l56 68l132 120l15 10l5 5l197 123q8 2 10 4l17 8l26 14q5 3 15 5q12 7 21 10l5 2
q32 17 53 22l-4 12l-10 12l-75 111l-7 9l-36 53q-24 32 -36 53q-10 5 -20 5zM303 538q-94 -173 -255 -245q-249 -111 -355 40q-12 34 -9 87q7 22 9 39q135 265 415 304q260 7 195 -225z" />
    <glyph glyph-name="seven" unicode="7" horiz-adv-x="1063" 
d="M-580 1749l3 -12q0 -24 5 -39v-11q2 -6 2 -21l5 -30l3 -17l3 -21l2 -21l3 -20l2 -33l21 -3l28 -3l6 -3h15l21 -3l18 -3l15 -3l13 -3l18 -3l52 -6l8 -3q20 0 49 -5l13 -3h15q16 -6 39 -6l15 -3q24 -6 42 -6l36 -6q7 0 10 -3h16l5 -3h15l31 -6l-5 -9l-39 -121l-5 -9
q-2 -18 -8 -29q-18 -45 -25 -74l-8 -21l-13 -44l-5 -12l-52 -154l-8 -21q-2 -18 -10 -29l-8 -27l-7 -21l-26 -82l-5 -9l-18 -57l-8 -20l-5 -21l-47 -133q-8 -33 -18 -53l-3 -15l-7 -18l-8 -26l-21 -57q0 -5 -2.5 -12.5t-4.5 -10.5l-37 -110q31 -29 65 -35l13 -9l132 -59
l7 -6q13 -3 31 -12l13 -6l26 -15l62 -26q49 -30 90 -36l5 24l6 12l18 65q7 21 10 35l31 104l5 12l13 47l8 27l8 23l15 51q0 5 5 17l5 18l3 12l28 92l3 11l15 51l3 11l34 113q10 26 12 44q8 18 11 33l36 124q8 18 10 32l78 264l7 17l18 68q8 18 11 33l20 65l3 15q8 20 16 47
l36 127q18 45 20 86l-77 3q-18 0 -31 3h-44l-8 3h-51l-21 3l-80 3l-18 3h-41l-21 3h-47l-5 3h-46l-18 3l-103 3l-6 3h-49l-15 3l-101 2l-8 3h-36l-18 3h-46l-13 3h-49l-8 3h-98v-32z" />
    <glyph glyph-name="eight" unicode="8" horiz-adv-x="1012" 
d="M-349 1551q-48 -254 118 -418q-336 -123 -379 -470q-18 -235 93 -407q130 -191 329 -220q15 -5 25 -2h95q369 83 424 475q28 368 -238 559q266 151 221 446q-60 290 -316 326h-86q-233 -65 -286 -289zM-40 1412q10 -117 -58 -193q-65 -29 -95 55q-48 154 30 274l5 3
q15 13 30 15q83 -34 88 -154zM115 566q10 -227 -140 -360q-131 -84 -256 -24q-123 76 -161 204q-48 175 20 321q78 154 224 180q268 -7 313 -321z" />
    <glyph glyph-name="nine" unicode="9" horiz-adv-x="1152" 
d="M-545 1415l-4 -16q-16 -48 -21 -81v-127l5 -16q4 -24 11 -43l2 -5l5 -17l14 -29l28 -41l11 -16q26 -30 46 -46q224 -146 476 -56l-3 -9l-4 -27q-5 -13 -5 -24l-4 -13l-3 -19l-16 -68q0 -8 -2 -10l-5 -30l-2 -8q-7 -27 -9 -46l-23 -100l-3 -19l-7 -32l-27 -130l-5 -13v-8
l-25 -111q0 -8 -3 -11q-9 -40 -11 -67q7 0 14 -1.5l13.5 -3t13.5 -2.5t14 -2.5t9 -4.5h10l57 -10l12 -3q16 -6 30 -6l4 -2l14 -3q12 0 30 -5l26 -6l16 -2l11 -3l14 -3l58 -5l5 16q4 35 11 59l19 106l2 18q7 19 9 49l2 13q7 22 12 52v11l5 13l2 24l4 19l5 27l2 11l3 11l11 67
l3 14q6 27 9 48l9 41v8l5 16v11l7 30q0 8 2 10l4 27q5 35 12 60l2 16q3 21 7 35l7 46l2 13l5 14q0 8 5 24l2 16q2 22 7 35q0 8 2 11l3 14v10l4 14q2 24 7 43l7 35l5 33l2 10l23 57l2 8l16 41l14 62v135l-4 18q-14 54 -33 89q-143 208 -371 184h-81q-376 -70 -538 -424z
M127 1351q-58 -211 -233 -241q-171 -32 -242 130l-3 5l-7 27q0 16 -2 27q32 249 265 281q222 0 222 -229z" />
    <glyph glyph-name="colon" unicode=":" horiz-adv-x="620" 
d="M-237 889q-30 -154 151 -169q187 -5 187 149q-48 122 -194 111q-100 -13 -144 -91zM-237 268q-30 -154 151 -169q187 -5 187 149q-48 122 -194 111q-100 -13 -144 -91z" />
    <glyph glyph-name="semicolon" unicode=";" horiz-adv-x="237" 
 />
    <glyph glyph-name="less" unicode="&#x3c;" 
 />
    <glyph glyph-name="equal" unicode="=" 
 />
    <glyph glyph-name="greater" unicode="&#x3e;" 
 />
    <glyph glyph-name="question" unicode="?" horiz-adv-x="1240" 
d="M114 1652l-30 -2l-39 -2q-18 0 -31 -3l-44 -2l-16 -2l-20 -3q-23 0 -39 -4l-21 -2h-16q-7 -3 -23 -3l-16 -2q-36 -7 -57 -7q0 -14 3 -23l2 -4l9 -41q7 -23 9 -39q7 -18 12 -46l4 -14l2 -9l10 -36l2 -9q2 -16 7 -28v-9l7 -20q2 -19 6 -30l151 2l12 -2h54l14 -2h25l5 -3
l45 -2q30 -5 51 -5l4 -2h9q23 -4 39 -4l9 -3l12 -2l11 -2l37 -5l9 -2q14 -2 16 -5h7l146 -45l20 -12q16 -7 26 -13q31 -28 41 -62q-16 -39 -46 -60l-7 -4q-14 -5 -23 -12l-48 -20l-9 -2l-39 -14h-7l-20 -7l-18 -4q-9 -3 -25 -5l-39 -9h-12l-29 -7l-26 -2q-25 -5 -54 -7
l-12 -2l-71 -5l-13 -2l-162 -5q4 -14 4 -25l23 -84v-7l5 -19l2 -11l20 -75q3 -21 7 -35l14 -52v-7l16 -59l2 -16l5 -16q7 -21 9 -37q7 -23 9 -39l2 -9l7 -23l2 -13q3 -14 5 -16l2 -12q3 -14 9 -36l16 -69l12 2l71 7q18 0 32 3l34 2l7 2q27 0 45 5l26 2h6q28 0 46 5v13l-4 30
v16l-3 9l-2 16l-2 16q0 14 -1.5 26.5t-5.5 35.5v16q-2 6 -5 22v16q-7 37 -7 58l-2 9q0 13 -2 23q0 16 -2 27v7l-3 11q-4 25 -2 41q7 0 9 3l18 2l14 4l18 3l57 16q16 2 28 7q23 4 39 11h7l22 9h7l105 39q23 7 35 14l25 11q20 7 34 16l48 25l7 2l9 7l18 9l30 21l4 2
q26 21 42 30l9 9q6 5 18 16l14 12l50 54l7 12q13 18 27 43l7 14l9 16l21 59l2 14l5 25v69q2 41 -7 68q-35 80 -96 128l-39 25l-5 5l-11 7l-55 27l-16 7l-62 20q-13 7 -25 9l-38 10q-23 6 -39 9q-5 0 -10.5 1t-8.5 3l-27 5h-9q-5 2 -16 2q-16 5 -30 5q-20 4 -36 4l-7 3l-30 2
l-23 2h-25l-9 2h-308zM59 136q-36 -190 187 -208q231 -7 231 183q-59 150 -240 137q-123 -16 -178 -112z" />
    <glyph glyph-name="at" unicode="@" horiz-adv-x="579" 
 />
    <glyph glyph-name="A" unicode="A" horiz-adv-x="948" 
d="M218 1638l-5 -12v-9l-46 -212l-7 -34l-21 -99l-2 -13l-20 -99q-8 -25 -10 -44l-2 -12l-5 -19l-2 -12l-44 -205l-7 -35l-52 -251l-2 -16l-8 -28l-4 -18v-10l-5 -12l-5 -22q-3 -34 -11 -56l-16 -78l-2 -12l-16 -78l-2 -12l-5 -22l-23 -109q-10 -34 -8 -61l107 1
q19 -2 46 -3h46l28 2l6 -2l58 4l2 12q7 31 9 53l6 43l2 9q3 49 16 84l283 20l28 -50l7 -18l7 -9l15 -29l6 -9q1 -6 11 -21l28 -56l22 2l29 11l60 19l15 4l15 5l63 22q9 1 12 4l33 9l9 3q30 12 51 16l45 15q-1 16 -5 25l-7 17l-7 9q-4 15 -15 36l-10 21l-4 12l-36 74l-4 12
l-7 11l-65 143q-4 9 -7 12l-4 12l-7 11l-11 30q-10 15 -14 24l-69 151l-10 21l-134 290l-11 21l-14 33q-4 15 -11 24l-43 94q-4 12 -15 33l-7 12l-40 92l-10 18l-12 30q-13 20 -17 35l-11 27l-11 20l-11 24l-61 134l-4 6q-11 23 -21 35zM320 963l1 -9l37 -133l3 -8l9 -43
l4 -12l16 -51l4 -15q5 -27 13 -48l8 -36l5 -18q11 -27 15 -48l-9 -4q-6 3 -21 2l-31 4q-15 -1 -25 1h-46l-46 6l2 19l2 18l6 34q2 25 9 59l2 15l12 84l-1 12q3 7 5 22l7 68l5 19l-1 9l7 34l1 27z" />
    <glyph glyph-name="B" unicode="B" horiz-adv-x="798" 
d="M22 1841q-37 -3 -62 -9v-50l3 -25l6 -96l3 -24l13 -146l3 -9v-19q0 -9 3 -12q0 -47 6 -78v-25q10 -40 6 -68l4 -9l3 -62l3 -16l3 -21v-31l3 -16q0 -37 6 -62v-22l3 -9l3 -62l3 -9l4 -62l3 -25l3 -22v-25l3 -9v-18q0 -10 3 -13q0 -46 6 -77v-25q6 -25 6 -44v-24l3 -10v-21
l4 -7q0 -21 3 -37v-28l3 -12v-22l3 -6l3 -62l3 -9l3 -62l3 -10l10 -127l3 -12l6 -81q3 -31 440 115l6 1l25 21l12 12l7 3l12 13q25 21 37 40l3 6q31 53 38 99q0 44 -13 75q-6 164 -152 248q478 322 307 772l-15 37l-62 93l-16 18q-242 205 -570 180h-127zM484 1215
q22 -189 -205 -236v25q-6 28 -3 50l-3 18l-3 112q0 9 -3 12v53l-3 12v47q-6 56 -3 93q198 -12 223 -186zM447 465q6 -152 -140 -183l-3 133l-3 12v31q0 19 -3 31v56q-6 37 0 65q136 -18 149 -145z" />
    <glyph glyph-name="C" unicode="C" horiz-adv-x="1209" 
d="M20 1697l-40 -6l-87 -23q-389 -169 -573 -503q-206 -331 -190 -673l17 -87l7 -18q133 -356 474 -391q316 -31 549 198l-11 43l-6 10l-14 47l-2 12l-5 13l-58 202l-5 10l-14 47q-257 -364 -423 -207q-185 278 -81 564q168 362 604 369l40 76q15 32 29 52l39 73l11 20
l11 23q19 41 36 64q2 18 -9 28q-96 51 -196 54l-70 6q-18 -5 -33 -3z" />
    <glyph glyph-name="D" unicode="D" horiz-adv-x="1319" 
d="M-447 1832l-104 -9l-20 -3l-18 -2l-66 -9h-12q-5 -3 -20 -3q-18 -6 -30 -6l-51 -9l-9 -3l-17 -3l-36 -6l3 -39v-29q3 -18 6 -48v-33q3 -18 6 -44l6 -95l21 -3h32q9 0 30 -3q21 0 54 -3l32 -3h39l9 -3q29 3 50 -3q24 3 45 -3v-66l3 -9v-59l3 -24v-68l3 -24l3 -140l3 -23
v-48l3 -12l3 -151q0 -9 3 -12v-78q6 -17 3 -35v-45l3 -15v-65l3 -12l3 -95l-9 -3l-87 -6l-23 -3l-48 -3q0 -12 1.5 -21t7.5 -26l3 -18l3 -21l3 -18l12 -62v-9l3 -18l6 -21l9 -65q17 -6 38 0l54 12l12 3q18 3 41 12l12 2l12 3l21 6l21 6l74 27q18 3 30 9q44 21 62 24l33 15
l24 9q44 20 59 29l9 3l30 15l9 6q17 6 26 15q18 6 27 15l83 50l12 9l21 12l6 6l86 68q425 387 265 922l-30 71l-9 12l-39 56l-77 72l-6 3l-18 12l-6 6l-17 11l-54 27q-18 9 -21 12l-107 39l-18 3l-56 15l-12 3l-42 5l-11 3h-12l-18 3q-27 6 -66 6q-35 6 -59 3h-238z
M189 1202q66 -469 -344 -618l-33 -9l-15 -3q-18 -6 -36 -6v919q6 14 18 14q306 -5 410 -297z" />
    <glyph glyph-name="E" unicode="E" horiz-adv-x="823" 
d="M301 1804l-27 -1l-37 -6l-24 -2l-43 -6l-19 -1l-52 -9h-9l-37 -6l-18 -2l-21 -1l-19 -2l-21 -5q-9 1 -28 -4l-42 -3l-19 -5l-15 2l-18 -5l-101 -12l-9 -2l-25 -1q-28 -7 -49 -9l-15 -1q-27 -2 -49 -6l-5 -72q-1 -25 -6 -43l-10 -151q-9 -35 -7 -59l-7 -94q-1 -15 -4 -24
l-8 -62q4 -28 0 -50l-1 -8q-2 -27 -6 -48l-11 -148l-4 -11l-9 -148q-6 -21 -6 -36l-10 -142l-4 -8l-8 -118q-2 -30 -7 -51l-21 -295l21 -1q9 -1 13 1l21 2q12 -1 30 1q25 8 70 7q16 5 28 6t22.5 1.5t26.5 2.5l21 2l67 7l21 1q13 2 31 4q15 0 26 2t26 4q33 0 55 5l27 1l15 2
l13 3l15 1l33 1q22 4 37 4l40 6q39 0 67 8l2 17l16 72l5 15l3 11l5 15l3 15l10 48q4 18 7 20l1 9l5 22l3 6l4 17l5 27q7 24 7 45l-77 -16q-6 1 -22 -4q-43 -7 -68 -13l-116 -26l-12 -2l-41 -10l-12 -2l-40 -5l-12 -6l-9 1l-19 -5l-12 -2l-77 -19l-2 18l7 51l4 15l6 33l7 66
l4 12l8 63q3 17 9 48q1 21 6 54l37 9q37 4 62 10l21 2l31 7l85 15q34 5 52.5 9.5t33.5 2.5l86 16l2 24l-3 10l2 108l-2 9l1 73l-2 6q5 25 0 45l1 101l-15 -3l-19 -7l-15 -2l-66 -20l-12 -2l-39 -12l-13 -3l-28 -7l-43 -12l-22 -7l-77 -22q-2 21 3 38q0 9 4 13l5 30l1 21
l4 14l5 21l2 19l3 9l1 18l5 32l4 9q1 24 9 39q12 -1 39 3l53 9l24 1l22 5l12 -1l18 5q27 1 49 5l12 -1q19 5 31 4q30 7 52 9l15 1l48 6l4 15l4 18l2 15l11 42l5 14l4 19l4 23l5 15l4 21l10 42l4 21l3 5l4 18l5 28q9 23 7 44l-24 2z" />
    <glyph glyph-name="F" unicode="F" horiz-adv-x="623" 
d="M387 1750h-10q-28 -8 -50 -11l-53 -10q-25 -2 -44 -6.5t-27 -5.5t-11 -4h-13l-15 -5l-54 -8l-18 -5l-73 -14l-18 -2l-35 -8l-19 -3l-19 -2q-28 -8 -50 -11l-16 -2l-18 -3l-19 -5l-13 -3l-19 -3q-34 -5 -53 -10l-25 -2l-22 -6l-3 -71l3 -22q-1 -16 2 -25l2 -41
q-1 -22 1 -56l2 -25q-1 -19 2 -31l-1 -35l3 -9l1 -41l2 -44l1 -46l3 -29l-1 -28l2 -12l-1 -25l3 -13l3 -103l3 -6q-1 -22 1 -37q-1 -35 2 -44l5 -131l2 -22l-1 -31q3 -19 5 -50l1 -35l1 -75l3 -9l4 -144l3 -6q-4 -25 2 -47v-62l3 -16l4 -141l3 -9l-1 -34l2 -25l2 -50l9 -1
l22 9q51 17 79 32l51 23l11 236l4 19l5 146l5 35l2 71l22 3q47 -2 65 -6l218 -11l-2 19q-2 44 -7 69l-5 35q-3 21 -5 46l-2 22q-5 32 -5 54q-5 18 -5 28q-9 0 -12 -3q-22 -2 -30 -3.5t-16 -2.5t-11 -4l-22 -3l-19 -2q-19 -6 -31 -5q-16 -6 -31 -9l-22 -2q-41 -11 -69 -10
l4 22l12 274l5 34l5 149l9 3l486 -17l19 527h-22z" />
    <glyph glyph-name="G" unicode="G" horiz-adv-x="1182" 
d="M-676 1426h-10q-241 -314 -238 -664q4 -402 299 -678l6 -9l23 -23q13 -16 22 -22l26 -26q26 -19 39 -32l144 -84q344 -125 661 -22q0 29 -9 48l-3 19l-29 97q-3 6 -7 19l-41 138l-4 19l-9 29l-16 48q-7 29 -13 45l-29 100l-3 13l-3 13l-4 12q-9 20 -9 32q-10 23 -13 42
l-19 64l89 55q29 16 45 29l-3 13l-25 74l-4 12l-3 13l-6 13l-10 35q-10 20 -13 36l-32 93l-67 -23l-7 -3q-35 -16 -58 -22l-237 -90q-26 -7 -42 -16l-22 -7l-116 -45l3 -16l32 -86q4 -20 10 -32l19 -55q10 -19 13 -35l19 -52l74 36l10 3q16 9 26 13l22 12l6 -3
q0 -13 3.5 -22.5t3.5 -17.5t3 -24l10 -35v-10l6 -26q0 -12 7 -35l3 -13q0 -19 6 -35v-10q7 -19 7 -35l3 -10l3 -25l10 -36q-4 -9 -10 -12l-71 -4l-9 4h-19l-10 3l-39 6l-32 13q-16 10 -25 13l-49 32l-48 48q-135 193 -147 408l12 54v10l10 39q116 539 456 301q10 32 22 52
l16 38l84 199q-241 126 -482 109q-128 -28 -208 -109z" />
    <glyph glyph-name="H" unicode="H" horiz-adv-x="1009" 
d="M-194 1838l-38 -4l-18 -3l-69 -14h-18q-20 -7 -38 -7q-7 -3 -24 -3l-28 -7h-10q-38 -11 -63 -11v-52l4 -21q7 -27 7 -48l3 -14v-14l4 -21l18.5 -125t5.5 -73q7 -59 94 -705l3 -14q0 -17 4 -34l3 -21l7 -56v-10l3 -18l4 -27l3 -25l4 -24l7 -49l3 -20q0 -21 4 -25l3 -24
v-21l4 -10l3 -32q0 -27 7 -45l4 -24q0 -28 3 -49l4 -14q3 -48 10 -76l7 -49q0 -20 3 -24v-10q4 -42 11 -70q10 0 14 4l14 14l10 7q21 17 24 24l11 7l17 17l11 7l72 66v122l4 27v139q0 28 3 49v146q0 73 11 121l229 39v-160q0 -35 -3 -59v-136l-4 -38v-167l11 -3l38 -10
q7 0 24 -4l28 -7q41 -14 73 -17l3 28v27l4 14v14l3 24q7 46 7 77l4 17l3 24q0 28 7 66v25l3 10q0 21 4 25v24q7 38 10 90l4 24l3 25q0 24 52 489l4 52l3 25l45 434l7 45l4 52l3 24v49h-17q-10 -3 -19 -5t-33 -5l-21 -4h-17l-11 -3l-17 -4l-38 -3q-21 -7 -38 -7l-11 -4
l-28 -3l-24 -4l-21 -3l-41 -7v-10q-7 -39 -4 -66q0 -80 -3 -108v-97l-4 -11v-118q-3 -35 -3 -59l-4 -208l-3 -132l-230 -56l-27 948h-28z" />
    <glyph glyph-name="I" unicode="I" horiz-adv-x="563" 
d="M-691 1592l13 -81l-2 -9l14 -87l-1 -10l13 -84l1 -21l12 -78l-2 -6l15 -90l-2 -10l14 -86q1 -40 8 -67l4 -45l13 -81q-2 -25 4 -42l5 -30q3 -37 7 -61l7 -44q3 -15 1 -25l11 -66q2 -15 0 -24l14 -81l-1 -18l13 -75q2 -37 6 -61l8 -45l-1 -15l28 -174l23 -5q10 -2 14 -4
l81 -15q34 -14 57 -1v22l6 77l-1 25l3 22q1 33 4 52l-1 25l7 93q3 19 2 46v16l5 31l1 34l1 12q5 47 3 78l4 34l-1 21q6 23 3 41l4 34l1 34l2 6l1 16l1 34v18l3 19q-1 6 0 21l3 35l5 68l1 15l12 233l3 6q-3 33 3 56q-1 9 0 20t1 32l7 112l2 9q-1 25 3 56l2 49l1 13l3 19
l-2 12q10 56 4 92l-474 -73z" />
    <glyph glyph-name="J" unicode="J" horiz-adv-x="1029" 
d="M74 1794l6 -160q3 -19 3 -33v-48l4 -10v-85l3 -36l3 -179q3 -45 -3 -74v-88q0 -30 -3 -52v-36q0 -23 -4 -59l-3 -35l-3 -30l-3 -29v-23q-4 -13 -7 -42l-3 -20l-10 -55q-6 -16 -6 -29l-13 -33q-4 -19 -13 -32l-10 -20q-13 -19 -20 -39l-3 -10l-29 -49q-179 -175 -472 4
l-13 -17l-10 -13l-23 -35l-6 -7l-20 -29l-10 -13l-29 -43l-6 -6l-17 -23l-22 -36l-10 -13l-13 -16q-13 -23 -26 -36l-3 -6l-20 -26l3 -17q329 -169 641 -104l10 7q49 19 63.5 27.5t27.5 21.5l7 3q26 13 39 23l6 6q33 29 52 59l7 6q16 23 32 52q20 30 30 52q10 17 13 26
l19 36l4 10q9 20 13 36l9 23l43 117l3 13l3 13l46 179l3 16l10 33l3 16l3 19l4 26l13 66l3 16l3 26q3 6 3 14.5t4 11.5v13l13 81v13l3 7l3 19q0 26 7 49l3 36l6 55v10l4 36l3 10l3 65l3 9l7 75l3 43l7 123l3 17v153l-42 3l-160 3q-19 3 -32 3h-144z" />
    <glyph glyph-name="K" unicode="K" horiz-adv-x="1100" 
d="M-793 1855l-38 -58q-7 -19 -17 -32l-20 -32q-4 -9 -7 -13l-52 -83l-10 -16l-51 -86l-10 -19l-58 -93l-18 -28l-23 -42q-4 -10 -9 -17.5t-9 -11.5l-95 -163l-4 16q0 23 -3 39l-4 137l-3 13q3 48 -3 80l-7 182q0 25 -4 45l-3 95l-24 -3l-38 -3q-20 -6 -37 -6q-7 -4 -24 -4
l-24 -6l-123 -19q-34 -3 -56.5 -8t-53.5 -8l-58 -10q-30 -3 -51 -9v-35l7 -23l10 -70l4 -10l6 -44l4 -10q3 -35 10 -57q0 -13 7 -39l3 -22l4 -19l3 -23l4 -12q0 -13 6 -32q0 -16 3.5 -27.5t7.5 -30.5l3 -19l3 -22q0 -13 4 -32l10 -48l10 -55q0 -9 4 -12v-13l20 -106
q4 -12 5.5 -23.5t5.5 -33.5q3 -32 10 -54l17 -99l3 -10q4 -35 11 -58v-12q6 -19 6 -35l4 -10l3 -22q0 -13 4 -32l7 -26q3 -13 4.5 -24t5.5 -37l3 -25q7 -19 7 -35l10 -48l4 -19q3 -32 13 -74l4 -25l3 -26q7 -19 11 -51q6 -26 10 -61l3 -19l4 -19l6 -22l11 -71h17l51 32l10 3
l17 13l82 45l7 6l72 39l-3 131q-7 22 -4 41l-3 70q0 26 -4 45l-3 125q0 16 -3 25v45q-7 51 3 89l17 -22l10 -19l38 -54l17 -26l7 -6l99 -144l3 -6l45 -64l7 -13q17 -22 24 -35l17 -26l17 -22q17 -29 31 -45l13 10l11 12l17 23l65 83q13 16 17 19l10 16l7 6q31 36 44 64
q-10 10 -24 26q-24 32 -41 48l-7 6l-17 19l-30 35l-35 42l-13 13q-14 19 -28 32q-6 9 -20 25l-14 13l-17 19q-14 23 -44 51q-17 23 -28 32l-3 7l-27 28q-18 23 -31 36l130 166q7 9 10 12l55 71q10 9 27 32l34 41q28 39 48 58l10 12l11 13l47 61q11 16 18 19l41 51v23l-28 70
q0 6 -7 19l-99 272l-3 12l-31 80h-7z" />
    <glyph glyph-name="L" unicode="L" horiz-adv-x="747" 
d="M-660 1631l98 -1604l125 26l19 7l162 41l19 7l41 9l11 5l43 9l11 6l53 11l11 5l118 28l5 4l84 21l-16 115l2 7l-4 20q-2 36 -7 59l-8 65l-56 -21l-17 -6l-16 -7l-48 -19l-17 -7q-23 -5 -36 -14l-62 -22q-6 -1 -20 -7l-33 -13q-9 -2 -29 -9q-49 -26 -84 -31l6 26l1 12
q5 20 5 35l10 50l1 13l2 15l4 10q-1 18 6 32v12l3 13l2 21l4 10l18 113l5 23l18 113l4 22l2 21l3 13q5 19 5 35l4 22l31 170v12l4 13l1 22l4 10l19 125l5 19l4 22l2 22l4 10l29 176q2 6 2 18l8 50q5 17 6 26l5 37l1 7q14 48 10 84l-47 -7l-35 -8l-6 2l-94 -17q-27 0 -47 -7
l-18 -1l-91 -16q-24 1 -41 -5l-15 -1l-43 -9l-13 1l-29 -7l-23 -2l-87 -18z" />
    <glyph glyph-name="M" unicode="M" horiz-adv-x="1218" 
d="M771 1683q-13 -22 -16 -38l-13 -32l-6 -9l-9 -26q-4 -9 -7 -12l-3 -10l-10 -22l-54 -134q-9 -19 -12 -35l-10 -19q-10 -32 -22 -51l-16 -45l-7 -9l-19 -48l-9 -22l-26 -67q-6 -10 -13 -29q-9 -32 -22 -51l-51 -131q-9 -16 -13 -28l-60 -147l-10 -25l-35 -90q-6 13 -12 39
l-13 35l-3 12q-13 32 -16 55l-64 197l-3 13l-3 16l-29 89l-3 13l-13 35l-3 13q-13 31 -16 54q-16 35 -19 60l-3 7q-7 25 -13 38q-6 29 -16 51l-3 16l-16 44l-3 13l-19 67q-10 19 -13 35q-26 92 -42 121l-6 -25l-3 -16v-16l-10 -45l-3 -13l-3 -16l-3 -15l-10 -51l-3 -26
l-6 -22l-4 -16l-3 -22l-13 -64q0 -10 -6 -29l-3 -29l-3 -19l-7 -19l-6 -44l-3 -19q-10 -26 -10 -48q-3 -10 -4.5 -18l-3 -16t-3 -17.5t-5.5 -25.5l-9 -54l-3 -19l-13 -54l-3 -26l-7 -28q-3 -32 -9 -51v-10q-10 -35 -10 -43t-3 -11l-13 -80l-3 -12l-3 -16l-10 -42v-9
q-6 -19 -9 -54q-10 -29 -13 -51v-16q-3 -7 -4.5 -13l-5.5 -22l-3 -23l-3 -12l-29 -160l-3 -9l-3 -16q-13 -58 -13 -96l13 -3l26 -3l25 -3q19 -7 35 -7q6 -3 14 -3t12 -3q19 -3 47 -6l54 -10h10q19 -6 38 -6q7 19 7 35l9 28l3 19l7 26l3 16l6 22l3 22l7 16q3 26 13 55l31 133
v10l13 41l3 16l7 35l22 -38q10 -16 13 -25l51 -90l3 -9l16 -26q9 -25 19 -38l10 -19q16 -22 22 -41l35 -61l3 -10l45 -79q3 -10 6 -13l51 -92q6 3 6 6l26 80l3 12l22 74q16 38 20 63l25 77l3 6q7 29 16 51l26 83q6 29 12 45l10 35l6 12q3 20 13 42q3 19 10 32l6 28l3 -22
v-331l-3 -13q6 -41 3 -70v-166l38 3l16 4h16q7 3 23 3l63 9q19 0 51 7l54 6l23 3l22 4h19l38 6v67l-3 16l-6 99l-3 12v19l-4 26l-3 22l-3 35l-6 73l-4 36l-6 54q0 19 -3 32l-6 86q0 12 -2 26.5t-5 24.5v31l-3 10v25q-10 39 -6 64l-4 10q0 25 -3 44l-3 48l-3 19l-7 73
q0 13 -1.5 27.5t-4.5 23.5l-3 64l-3 10q0 38 -7 63v26l-3 9l-3 64l-3 7q0 22 -3 38l-4 38q0 16 -3 26v22l-3 13v19q-6 38 -6 63v13q-3 7 -3 22l-4 23l-3 35l-3 54l-3 10l-7 92h-6z" />
    <glyph glyph-name="N" unicode="N" horiz-adv-x="983" 
d="M-177 1748l-13 -105l-4 -9l-13 -102l-5 -18l-10 -80l-6 -25l-10 -76q-8 -41 -12 -69l-5 -41q-13 -60 -15 -98q-8 -44 -12 -70l-7 -60l-5 -15l-13 -102l-4 -9l-10 -83q-2 -15 -6 -25l-12 -98l-6 -22l-10 -79q-7 -28 -9 -50l-8 -64l-6 -22l-9 -69l-7 -35l-25 -200l318 -39
l8 67l-2 10l12 127l-2 10l11 118l1 35l7 54l-2 13l14 134l-2 10l5 44v23l7 57l9 -30l5 -11q1 -16 6 -26l28 -91q7 -20 9 -33q7 -17 9 -27l12 -40l7 -20q12 -34 15 -57l8 -17l9 -33q6 -27 14 -44l2 -9l34 -111l2 -13l7 -20l12 -34q10 -53 31 -91l28 71l5 12l22 49l4 12
l69 166l6 22l31 67l1 9l63 150q11 34 23 55l5 13l5 12l36 86q15 43 28 67q1 10 4 12l11 31q12 21 17 40l4 6q11 34 23 55l6 22l13 27l59 141q6 22 13 37.5t15 30.5q15 43 27 67l6 19q13 24 18 43l5 12q12 24 18 43l22 52q6 18 20 52l9 22l4 6q17 36 21 65l-357 8l-234 -883
l-17 44l-25 58q-9 33 -19 54l-30 71l-2 10l-15 34q-7 27 -15 41l-15 34l-2 10l-20 47q-11 37 -24 61l-7 24l-8 13l-47 119l-2 10q-9 27 -17 41q-7 26 -17 44l-5 16l-32 81l-7 17q-10 27 -18 41l-2 10l-17 41q-14 47 -33 75q-2 -16 -6 -25z" />
    <glyph glyph-name="O" unicode="O" horiz-adv-x="1075" 
d="M-257 1722l-19 -3l-25 -8l-22 -8l-50 -26l-6 -6l-29 -17q-15 -9 -25 -17l-89 -79q-10 -15 -26 -30l-12 -15l-52 -68q-10 -18 -20 -30l-19 -32l-4 -9q-9 -15 -13 -24l-13 -21l-3 -9q-10 -15 -14 -24l-20 -48l-6 -9q-11 -33 -20 -51l-4 -12l-24 -66q-4 -24 -14 -51l-3 -12
l-8 -31l-3 -18l-7 -21l-12 -75l-3 -6q-2 -34 -9 -55l-3 -97q-23 -300 95 -542l6 -6l20 -37l9 -10l24 -34l44 -47q48 -42 91 -58l24 -10q21 -10 37 -14l129 -4l47 13q15 3 34 11q25 9 41 17q214 136 320 345q269 553 96 1074l-6 9l-9 19l-8 18l-14 31l-15 22l-41 59l-54 54
l-81 51l-64 21l-117 4zM-165 1113l12 -22q9 -15 11 -24q15 -31 20 -53q66 -398 -171 -654q-37 -26 -78 -31q-27 1 -49 11q-33 29 -53 60q-8 24 -17 37q-3 15 -9 24l-18 98q1 25 -1 43l4 116q28 275 203 431l44 16q67 -2 102 -52z" />
    <glyph glyph-name="P" unicode="P" horiz-adv-x="1073" 
d="M-1093 1731q-19 -3 -47 -6h-12l-32 -6q-9 0 -12 -3l-25 -4l-12 -3l-35 -6l-12 -3l-13 -3l-25 -6l-6 -4q-34 -6 -56 -15v-197l3 -9v-62q-3 -25 3 -47v-97l3 -25v-74q0 -19 3 -32l4 -184q0 -18 3 -31v-84l3 -22v-90l3 -28v-69l3 -25v-93l3 -10v-99l3 -10v-90l3 -16v-106
l4 -9v-75q0 -15 3 -25v-78q25 0 43 3l28 3l22 4h13q18 3 31 3l19 3l34 3l9 3q25 0 41 6l12 69l3 22l7 28q3 31 12 68l3 16l3 19l3 21l16 78q0 10 3 13v15l3 10l6 34l4 9q3 32 9 53q3 41 15 69q512 -37 677 418l-3 240q-97 602 -758 539zM-566 1023q-53 -265 -396 -246l3 22
l3 40v19l3 13l3 25l3 59l3 19l4 40l3 22l3 28v28l3 19l3 43l3 35l3 9l3 44q0 34 7 56q349 -3 346 -275z" />
    <glyph glyph-name="Q" unicode="Q" horiz-adv-x="1213" 
d="M-1146 1826l-21 -9l-34 -15l-30 -15l-85 -67l-12 -12q-18 -25 -33 -37q-10 -15 -25 -33l-15 -21l-6 -6l-9 -16l-27 -42l-6 -15l-22 -37l-63 -167v-9l-10 -24v-9l-9 -31l-9 -48l-3 -12q0 -18 -6 -34v-12q-3 -18 -6 -42q0 -18 -3 -31v-239q6 -31 6 -55q58 -443 358 -647
q292 -142 510 92l24 -25l3 -6l128 -136h12l9 15l18 30l10 12l9 15l9 13l12 18l3 6l39 61l3 6l31 45l15 24l9 16q18 24 27 42q16 21 22 33l18 28q12 15 12 27q-21 12 -39 18l-49 25q-9 3 -12 6l-31 12l-9 6l-30 12q-15 9 -27 12l-28 15q179 607 -139 1084l-15 18l-70 73
l-18 15l-19 12l-6 6l-103 55l-39 12l-16 3l-18 3h-121zM-973 1319l12 -9l43 -42q118 -189 121 -404v-73l-3 -9v-43q-6 -24 -6 -45l-18 9q-9 3 -12 6q-9 3 -12 6q-49 18 -76 33l-9 -24q-10 -15 -13 -24l-39 -103q-12 -25 -15 -46l48 -51q28 -34 52 -52l-30 -30
q-55 -34 -110 -19l-6 3q-48 31 -76 64q-112 179 -115 371q-24 248 91 440q46 51 100 63q40 -3 73 -21z" />
    <glyph glyph-name="R" unicode="R" horiz-adv-x="1047" 
d="M-1035 1733l-33 -3l-28 -3l-33 -3l-15 -3l-12 -3l-24 -4l-15 -3h-12l-22 -6l-18 -3l-21 -3l-75 -16v-38l3 -13l3 -22q3 -22 4.5 -34.5t4.5 -31.5l3 -19l3 -22l3 -22l3 -23l3 -34q0 -10 3 -13l3 -22l3 -22l3 -22l3 -35l3 -26l6 -34l3 -22l6 -45v-9l6 -38q0 -10 1.5 -21
l4.5 -33l9 -54q0 -25 6 -44v-9l9 -64l3 -25l9 -69l3 -10q0 -28 7 -50l3 -16v-19l3 -10l3 -28l3 -26l3 -25l18 -123l3 -19q0 -19 3 -22l3 -22l3 -22l3 -35l9 -54v-9l12 -92l3 -16l3 -35l3 -16l9 -63l3 -16v-19l6 -25v-9l15 -108q21 0 40 10l9 6l36 16l51 22q12 3 34 16l36 16
l21 9l45 19l-3 19v32q-6 31 -6 53l-3 48l-3 69l-3 22l-3 64l-3 15l-3 35l-3 86q-6 31 -6 55t-3 39q0 26 -3 45v31l-3 7v38l-3 19l18 -23l9 -12l82 -111l12 -16l12 -15l9 -13l30 -41l12 -16l9 -13l12 -15l9 -13l25 -32q6 -6 15 -19l36 -50l9 -10q9 -16 21 -28l9 -13l12 -19
l12 -13l37 -50q9 3 21 16q15 22 27 34l73 83q18 25 33 38l6 9l45 51l-3 22l-9 12l-15 26l-9 12l-12 19l-9 13l-64 101l-12 16l-24 41l-6 6l-6 13q-30 41 -45 70l-9 12l-22 32l-30 50l-6 7q-9 19 -21 31l-6 13l-6 6l-42 67q447 790 -381 740zM-787 1341q18 -164 -179 -180
l-3 16l-3 16l-3 41l-3 16q0 25 -6 60l-6 88l-3 19q0 29 -6 51q24 16 51 19q130 -13 161 -146z" />
    <glyph glyph-name="S" unicode="S" horiz-adv-x="1129" 
d="M-1156 1232l4 -12q8 -56 23 -91q159 -420 594 -458l18 -7l44 -15q52 -20 85 -39q73 -44 88 -121l-1 -7q-7 -38 -24 -67q-299 -349 -671 -61l-19 -81q-1 -27 -9 -43v-9l-13 -51v-9l-9 -33l-1 -10l-4 -17l-12 -53q8 -14 20 -20q331 -144 615 -49q206 60 310 222
q226 443 -224 690l-23 12l-11 3l-43 22l-7 1l-12 6q-26 11 -43 22q-340 118 -308 312q47 97 140 134l22 4l96 5l13 1l11 -3q16 2 39 -1q24 -2 28 -4q26 -1 44 -5h10l55 -8l4 8q18 25 37 57l36 61q10 20 22 33q10 20 17 29l10 19q15 22 23 38l-7 23q-177 172 -473 95
l-195 -63q-293 -157 -299 -460z" />
    <glyph glyph-name="T" unicode="T" horiz-adv-x="1307" 
d="M131 1660q-16 0 -26 -3l-126 -3l-7 -4l-191 -6l-7 -3l-198 -7q-26 -7 -66 -3l-10 -4l-119 -3l-6 -3l-327 -14l-24 -3q-33 3 -59 -3v-36l7 -27l3 -40l6 -16l7 -56q3 -10 5 -20l3.5 -18t4.5 -32q4 -36 13 -85l4 -14l3 -16l3 -23l7 -47l3 -9q4 -37 10 -60l66 10l23 3l20 4
l23 3l20 3l17 3l20 4l72 10l27 3l13 3l23 4l16 3q30 0 53 7h10l53 9l17 -9l6 -109l4 -27l3 -56l3 -20q0 -36 3 -73l4 -13q0 -49 6 -82l7 -109l3 -24l4 -75q9 -53 6 -83l3 -26l4 -27q0 -49 6 -83l4 -62l3 -27q0 -20 3 -33v-36l4 -10q0 -26 3 -43l3 -69q3 -10 3 -30t4 -33v-30
l3 -13q0 -50 7 -83h43l10 4l19 3q27 0 43 7l27 3l13 3l16 4h14l56 9l16 4l53 6v109q4 20 4 33v228l3 27v244l3 10l3 525l4 10v119l33 10q23 0 39 3q10 4 30 7q27 0 43 7h17q10 3 18 4.5t16.5 1.5t11.5 4l244 36v10q7 23 10 59l7 73q3 20 3 33l7 43q0 26 3 46q10 60 7 99
h-119z" />
    <glyph glyph-name="U" unicode="U" horiz-adv-x="1221" 
d="M-449 1734l-3 -17l-3 -25l-8 -39q0 -15 -3 -29q-3 -34 -9 -56v-9q-5 -33 -5 -56q-6 -28 -9 -71l-3 -19v-26q-5 -19 -2 -36q-6 -26 -3 -46l-3 -5v-336q0 -8 3 -11l3 -65q2 -9 2 -23l3 -22l14 -96l3 -17l17 -71l3 -20l6 -19l5 -12q6 -25 14 -45l9 -28l8 -23l9 -19
q8 -14 11 -23l20 -39q17 -31 31 -48l8 -12l12 -17l65 -70l5 -3q88 -71 184 -93q112 -17 206 11l8 6l23 8l65 37l14 11l14 12l14 11l56 56l9 12l28 36q14 17 20 29l48 79l3 8l17 31l8 20l56 144q6 25 15 45v8l22 79l3 12l3 17q8 22 11 39q0 9 1.5 16t4.5 9l3 17l2 20l3 14
l11 57v14l6 22v9l3 20l3 17l3 16l5 57l3 14l3 17l5 85l3 31q6 19 3 36q6 26 3 46q6 22 3 39l3 31v102l-15 8l-19 3h-20l-71 8l-17 3l-127 12l-11 2q-17 3 -45 6l-51 3l3 -11l3 -113l3 -12v-321q-3 -29 -3 -48q0 -26 -3 -45v-32q-3 -22 -3 -36l-5 -62v-12q-3 -5 -3 -19
l-6 -37v-17l-3 -11l-3 -20q-2 -20 -3.5 -31t-4.5 -31l-6 -31l-2 -11q-6 -31 -12 -48l-25 -94q-6 -11 -14 -31q-20 -50 -43 -81q-45 -57 -110 -71q-93 -8 -149 51l-26 42q-5 14 -14 34l-5 8l-9 32l-5 11v8l-15 45v12l-2 5l-9 46l-3 11q0 17 -3 20l-2 19l-3 20l-3 31l-3 28
l-3 26v25l-2 11v40l-3 6l3 465l2 23v39l3 9l3 87q6 17 3 28l3 48l2 9l3 68l-39 2l-11 3l-32 3l-5 3h-17l-23 3l-19 3l-96 8z" />
    <glyph glyph-name="V" unicode="V" horiz-adv-x="1058" 
d="M150 1797q-35 -6 -59 -14l-18 -3l-15 -3l-15 -3l-18 -6h-9q-29 -9 -50 -12l-42 -9q-18 -6 -33 -9l-32 -6q-27 -9 -48 -12v-101l-3 -24v-69q0 -24 -3 -41q3 -87 -3 -114v-122l-3 -9v-92q-3 -45 -3 -107q0 -27 -3 -48v-89q0 -24 -3 -42v-89l-15 41l-9 21l-6 24
q-18 42 -24 69l-95 268q-6 26 -21 62q-6 24 -15 39l-9 33q-17 44 -20 59l-30 81q-3 18 -15 41l-27 81q-6 24 -15 39q-12 -3 -22.5 -4.5t-24.5 -4.5l-21 -3l-66 -12h-15l-9 -3l-41 -6l-18 -3l-51 -9q-9 0 -12 -3h-12l-74 -12q12 -39 27 -66l17 -32q6 -18 15 -30l9 -18l36 -68
q3 -9 6 -12l12 -21l3 -9q9 -15 12 -24l74 -143l9 -21l15 -24q9 -23 18 -35l9 -21l33 -60q3 -9 6 -12q9 -24 23 -50l6 -9l27 -54q6 -9 15 -27l6 -15l42 -77l9 -18l9 -18l9 -18l9 -18l8 -17l9 -18l30 -60l9 -18l33 -59l3 -9l12 -21l3 -9l59 -116q12 -24 21 -36l33 -66
q3 -8 6 -11q3 -9 6 -12l15 -27l3 -9l12 -21l3 -9l18 -33q3 -6 8 -6q3 24 9 42v9q6 18 6 33q9 27 15 71q3 18 6 21l3 21l21 98l3 24l9 48l21 92l3 21l6 24q0 12 6 39q3 17 6 20q0 12 6 27q3 27 12 72l6 23l2 15l3 12l3 24q9 27 12 48l3 15q3 26 12 71l9 45l9 39l6 32l3 18
q9 27 15 69l9 50l3 12l3 18l6 18v12l6 18v9l9 33l3 17l6 36q3 9 6 27l14 74l3 15q3 21 9 39q0 18 6 30l3 27l9 32v12q3 6 4.5 12t4.5 21l3 24l3 6v12l3 6l9 59h-21z" />
    <glyph glyph-name="W" unicode="W" horiz-adv-x="1349" 
d="M-142 1836l-18 -4l-80 -12l-18 -4l-28 -2l-33 -8l-31 -3q-36 -11 -61 -10l-4 -25v-9l-8 -57q1 -12 0 -21.5t-4 -12.5l1 -12l-2 -19l-4 -22l-20 -168l-1 -22l-8 -62l-2 -22l-4 -28q-1 -28 -7 -72l-8 -62q-1 -31 -6 -53q1 -10 -2 -13l-1 -25l-2 -21l-2 -19l-4 -22l-7 -78
l-11 21l-4 6l-25 57q-11 15 -14 24l-15 36l-11 24l-33 69l-11 20l-127 270l-10 18l-84 183q-20 -27 -27 -55l-8 -22l-7 -25l-19 -45l-8 -22l-7 -25l-11 -23l-15 -47q-8 -16 -10.5 -27t-6.5 -20.5t-12 -32.5l-44 -114l-8 -22l-15 -48l-8 -19l-34 -92l-3 6q-9 33 -20 54l-4 19
l-8 21l-4 15l-8 21l-4 15q-11 24 -15 39q-12 46 -20 64l-4 12l-7 15q-5 24 -19 57q-1 7 -5 22l-7 18l-4 12l-8 18q-8 33 -19 57l-373 -26q1 -15 9 -30l15 -42l11 -24l11 -34q11 -17 15 -33l78 -186l4 -15l11 -27l7 -12l42 -102l4 -12l4 -12l36 -84q1 -7 8 -18l19 -49l3 -6
l142 -348l4 -12l37 -88l4 -12l8 -21l22 -54l7 -12l19 -48l3 -6q9 -33 26 -54l7 22l68 222q7 34 18 57l37 129l8 19l31 98l2 13l48 151l2 13l23 70q-2 71 47 -53l26 -54q3 -9 7 -12l4 -12l14 -27l4 -12l65 -134q11 -33 33 -72l94 -201q23 -57 44 -93q4 -15 11 -24
q26 -63 36 -77q12 -34 32 -57l9 44l2 16q4 31 12 53l1 22l7 34l5 16l7 35l16 81l2 13l5 22l5 22q3 34 16 81q4 31 11 53v10l5 16q-1 6 4 22q7 43 14 69q6 43 18 94l2 15l7 38l7 31l5 16l34 182q7 25 9 47l7 28l2 13l5 22l5 18l-1 10q8 25 10 41l7 31l2 19l11 56l2 13l8 28
q-1 6 4 22q7 44 14 69l7 41l11 50l2 19l5 19l2 12l5 22l5 22l2 16l4 22l5 22l5 22q3 34 11 56q4 28 -57 15z" />
    <glyph glyph-name="X" unicode="X" horiz-adv-x="1075" 
d="M-345 1738l-9 -13l-16 -22l-91 -132l-9 -15l-13 -19q-19 -22 -28 -41l-38 -57l-6 -6q-28 -41 -35 -53l-6 -7l-44 -66v-15l6 -6l22 -29l3 -6l13 -16l13 -19l22 -25l9 -12l12 -19l7 -6l9 -13l44 -60l6 -6q13 -22 29 -38q15 -25 31 -40l19 -29l25 -31l9 -13l26 -34l9 -10
q13 -22 25 -34l13 -19l6 -6l66 -85l-63 -97l-3 -7l-31 -47q-13 -25 -26 -41l-40 -66l-10 -12l-41 -69l-6 -6l-16 -26l-56 -87l-3 -19l9 -13l6 -12l7 -7l63 -100l9 -3l9 9l4 6l122 139q6 9 19 25l16 15l3 7l34 37l6 10q19 19 29 31l19 22q22 22 34 41l57 66l9 -10l75 -100
l13 -16q19 -22 28 -37q7 -7 16 -19l9 -13l10 -16q16 -15 25 -31l12 -16l13 -18l9 -10q4 -9 10 -12l9 -13q16 -25 32 -41l50 -69h9q19 13 22 19q41 44 60 56q31 29 47 54l-9 22l-10 19l-9 22q-10 15 -13 25l-56 128l-10 19l-15 38l-19 44l-6 9l-44 104l-10 19l-41 91l29 31
l3 7l15 15q19 25 32 38l16 19l12 16l60 65l3 7l34 37l7 10l15 16l4 6l34 38l10 12l18 22l79 88q19 28 38 44v22l-10 44l-12 38l-4 22l-15 50l-3 16l-7 18q-3 25 -12 54q-10 41 -16 53l-13 50l-3 13l-9 41l-9 34q-10 29 -13 51l-9 -7l-57 -88l-3 -9l-35 -50l-3 -10l-66 -103
q-22 -29 -31 -51l-6 -6l-13 -22q-19 -25 -28 -44l-85 -135l-9 -12l-7 -13l-6 -6l-9 -16l-22 -38l-7 -6l-25 -44l-6 6l-19 47q-6 10 -9.5 19.5t-6.5 12.5l-53 125l-6 10l-13 31l-6 10q0 6 -10 22l-25 59l-9 19q-16 44 -32 69l-3 10l-59 132l-10 22l-6 15q-16 32 -22 54
q-9 15 -13 28l-12 6z" />
    <glyph glyph-name="Y" unicode="Y" horiz-adv-x="927" 
d="M-108 1683q1 -22 -5 -39l-8 -65l-3 -14l-11 -82q0 -16 -2 -31.5t-8 -35.5v-17q-5 -23 -6 -37q-5 -25 -5 -45l-23 30l-11 18q-7 13 -11 15l-3 8l-18 28l-21 30q-8 15 -17 25l-4 8q-11 20 -21 33l-18 28l-35 53l-11 18q-10 15 -14 17l-14 26q-10 12 -14 20l-14 17
q-8 -1 -24 -6l-53 -16l-16 -5l-45 -11q-8 -4 -24 -7q-18 -8 -34 -10l-29 -10l-8 -1l-54 -15l19 -34l10 -9l13 -18q18 -28 34 -45l78 -102l10 -15l11 -15l23 -30l11 -15l84 -110l11 -15l9 -10l14 -17q4 -8 7 -11l84 -109l6 -41v-22l3 -19l-1 -8l3 -28v-19l5 -32q-2 -9 1 -25
q1 -33 4 -55q-1 -11 2 -30q2 -33 5 -55l-1 -11l4 -30q1 -5 0 -19q4 -32 5 -55l5 -79q2 -33 5 -54l2 -31l1 -30q4 -27 4 -46l4 -30l2 -50l5 -38l-2 -8l3 -38l5 -33l-1 -17h14l19 2l69 2q22 3 38 2l22 1l25 3l30 1h19h20l59 9l-4 30l1 14l-4 24l-1 30l-5 38l1 9l-11 100l-1 22
l-5 38q1 31 -4 52v19l-6 38l2 9l-11 101l1 11l-11 98l1 11l-18 188l-3 36l-6 46l1 11l-6 63l25 39l7 12l14 19l24 39l9 15l21 33l9 15q18 25 38 58q14 24 23 37l11 18l68 106q13 24 23.5 38t17.5 26q11 21 20 33q59 94 70 110q7 14 14 21l2 6l9 12l12 18l11 18l8 18
l-550 -77z" />
    <glyph glyph-name="Z" unicode="Z" horiz-adv-x="1000" 
d="M-581 1685q-36 -7 -56 -15l-11 -3l-33 -7l-110 -34l-16 -2l-18 -5l-5 -3q-28 -5 -67 -18l-5 -3l-105 -28l-11 -2l-105 -31l-13 -3l-44 -13l-10 -2l-64 -18l-10 -3l-42 -13l-18 -2q-18 -8 -33 -11q-31 -7 -54 -15l-69 -21h-8l-72 -20v-18q0 -13 3 -21l2 -20l3 -21l2 -18
l3 -18l2 -18l3 -18l3 -13l2 -18q3 -38 10 -64q0 -23 6 -41l2 -13l3 -18l2 -28l8 -44v-10l5 -28l3 -13v-10l2 -16l8 -44v-7l5 -31h8l110 38l11 3l30 10l11 3l67 23l10 3q15 7 28 10q26 10 44 13l-5 -29q0 -5 -1.5 -11.5t-3.5 -8.5v-10q-6 -16 -6 -26q0 -5 -1 -11.5t-4 -9.5
q0 -10 -2 -25l-5 -21q-3 -10 -4.5 -19t-3.5 -25l-5 -36l-3 -15q-8 -21 -8 -39l-2 -5q-3 -28 -10 -61l-6 -29l-2 -13l-13 -79l-8 -39l-2 -18l-8 -36l-10 -51l-3 -16l-2 -15l-3 -21q-3 -5 -5 -18l-13 -77l-3 -10q-2 -26 -7 -44q0 -10 -2.5 -17.5t-2.5 -14t-1.5 -13t-4.5 -9.5
l-2 -18l-3 -10q0 -10 -2 -26l-8 -38l18 2l28 13q41 16 65 28l5 3q10 3 23 10q13 3 31 13q28 10 64 28l18 8l18 8q28 10 46 20l31 13l26 11l7 5l49 20q8 3 11 5l10 3l23 10l15 8l29 13q5 2 15 5q13 8 23 10l36 16l8 5l175 74l18 8q33 18 56 26v10l-38 134l-3 10l-13 41l-2 16
l-8 20l-3 13l-12 41q0 5 -6 18l-2 13l-5 18l-5 13q-6 28 -13 46l-16 -13l-15 -13l-10 -10q-21 -15 -31 -28q-13 -8 -23 -21l-16 -13l-20 -18l-13 -12q-18 -13 -28 -24l-47 -43l-5 -3l-36 -33l-13 -11l-49 -43q-5 -8 -10 -11q-5 -7 -10 -10l-46 -41q-21 -15 -31 -26l-18 -18
q-8 -5 -26 -23l-5 -2l-36 -36v10l8 15l7 18l26 70q5 7 13 25l31 83q13 25 18 43l20 52l8 20q8 13 10 21l11 31q18 33 23 56l7 16l13 31l3 10l46 113l8 18l5 18l21 49l7 15q5 21 13 34l3 5l5 15q2 8 5 10l3 11q5 13 7 15l5 16q3 7 6 10l2 10l28 72l8 18l10 26q8 15 11 26
q15 33 20 46l36 95l5 8l31 77l3 10q13 26 18 44l5 13q10 18 13 33l7 18l24 57h-18z" />
    <glyph glyph-name="bracketleft" unicode="[" horiz-adv-x="282" 
 />
    <glyph glyph-name="backslash" unicode="\" horiz-adv-x="318" 
 />
    <glyph glyph-name="bracketright" unicode="]" horiz-adv-x="312" 
 />
    <glyph glyph-name="asciicircum" unicode="^" horiz-adv-x="330" 
 />
    <glyph glyph-name="underscore" unicode="_" horiz-adv-x="490" 
 />
    <glyph glyph-name="grave" unicode="`" horiz-adv-x="357" 
 />
    <glyph glyph-name="a" unicode="a" horiz-adv-x="889" 
d="M-57 1199l-16 -47l-4 -13l-10 -30l-3 -13l-26 -83l13 3l23 3l23 7l20 3h21l6 4l36 3q290 27 270 -189l-7 -20q-223 109 -395 -40q-157 -199 -44 -415q106 -163 276 -186q157 -14 260 86q139 -157 329 -132l9 29l7 23l26 74q10 32 13 55q-192 -26 -275 160q4 23 10 40
q233 738 -518 685q-27 -7 -44 -7zM296 612q4 -93 -59 -149q-139 -60 -187 83q-26 152 113 192q113 -20 133 -126z" />
    <glyph glyph-name="b" unicode="b" horiz-adv-x="855" 
d="M-231 1833q-14 -3 -17 -6q-12 0 -27 -6q-26 -3 -47 -9l-11 -3l-65 -12q-23 -8 -41 -8q-17 -6 -32 -9l-32 -6l-9 -3q-23 -3 -38 -9v-23q6 -18 6 -29q6 -18 6 -30l6 -20l3 -15l2 -15l24 -114l3 -23l6 -21l6 -26l2 -15q3 -26 9 -47l15 -73l3 -11l3 -21l3 -18l6 -17l2 -12
l3 -20l15 -74q6 -17 6 -32l3 -6l3 -14l9 -47q2 -9 5 -26q3 -24 12 -53l3 -15q0 -12 3 -20.5t4.5 -16l4.5 -21.5l3 -18q3 -23 11 -53l3 -23l12 -50q0 -9 3 -12q0 -11 6 -29q0 -18 6 -29l3 -27l5 -23l3 -15l12 -49l3 -24l6 -20q0 -9 1.5 -16.5l3 -14.5t4.5 -10l3 -18l8 -50
q3 -6 6 -20l3 -21l3 -17l6 -24l3 -11l3 -12q0 -12 6 -29l3 -18q3 -23 8 -38h24l9 3q23 0 55 9l21 3l17 2l-6 159q141 -197 343 -106q202 141 170 390q-38 240 -249 293q-193 11 -275 -156l-3 6q3 41 -3 68v64l-3 21l-3 166l-3 15l-3 155q0 15 -3 24l-6 263l-3 18l-2 161
q-6 32 -3 56q-6 17 -27 11zM91 721q71 -70 59 -158q-6 -88 -73 -129q-24 -3 -44 6q-112 120 -27 258q21 20 41 29q24 0 44 -6z" />
    <glyph glyph-name="c" unicode="c" horiz-adv-x="774" 
d="M447 1101l-18 -3l-95 -37q-400 -256 -339 -659q33 -82 54 -106l6 -5q31 -34 58 -50q385 -180 665 134q0 13 -6 24q-6 5 -16 16q-15 18 -24 26l-97 108q-176 -340 -379 -52q-125 277 306 424l3 14l6 18l9 37l6 18l16 45v8q12 27 12 50h-125z" />
    <glyph glyph-name="d" unicode="d" horiz-adv-x="860" 
d="M379 1792l-2 -7l7 -47l3 -25l2 -22q4 -16 3 -26l9 -69q0 -13 3 -25.5t4 -31.5q2 -22 5 -38l-1 -10l5 -18l3 -42l2 -9l8 -63q2 -38 10 -85v-16l5 -35q3 -25 7 -44l-2 -7q4 -18 9 -50l3 -44l3 -13q1 -19 4 -44l3 -13l2 -22l2 -22l4 -35q-195 130 -379 26
q-198 -140 -182 -367q32 -252 237 -351q240 -81 393 101l10 -18l23 -1h13l80 -8q37 -7 65 -1q-2 26 -4 48l-7 83q-1 6 -1 22l-1 16v13v17l-3 12v26l-2 9l-1 36l-1 16q-5 34 -3 57q-5 19 -2 23l-2 22l-2 22l-1 19l-3 39l-1 19v16l-2 23l-4 44l1 10l-4 19q2 19 -3 38v45l-3 26
q0 13 -1 32l-3 28l-1 20l-2 35l-2 22l-3 71l-2 22l-2 23l-2 22l-3 70l-5 19l1 13q0 26 -5 64q-1 45 -2.5 58t-2.5 32v16l-6 80v16l-6 54q0 39 -10 69l-178 14l-14 3l-53 4l-15 -3zM277 798q116 -68 119 -194q18 -132 -75 -209q-31 -7 -58 -3q-113 68 -119 193
q-18 132 75 209q31 7 58 4z" />
    <glyph glyph-name="e" unicode="e" horiz-adv-x="767" 
d="M234 524q78 -290 329 -354l38 -1l124 18l33 10l9 2q18 5 30 7l51 16l18 6l43 19q20 12 31 22l-7 77l1 13l-4 30v22l-7 67q-151 -117 -311 -127q-138 33 -118 203l59 21l18 6l17 5l21 6l30 8q37 8 60 17l66 19l24 6l11 5l27 7l18 6l21 6l21 6l21 6l45 13q-27 126 -37 152
q-122 312 -436 250q-354 -131 -246 -569zM690 815l22 -50l-232 -73q-42 125 33 202q135 42 177 -79z" />
    <glyph glyph-name="f" unicode="f" horiz-adv-x="546" 
d="M-106 1816l-17 -8l-22 -14l-17 -8q-19 -17 -33 -25l-64 -70l-3 -5l-11 -17l-5 -6l-28 -47q-3 -8 -6 -11l-19 -42l-9 -19l-25 -62l-2 -11l-3 -11l-11 -30l-3 -17q-8 -22 -11 -39l-9 -31v-8l-11 -47q-3 -28 -8 -45q0 -8 -3 -25l-5 -30v-11l-3 -20q-9 -44 -9 -69l-11 -3
l-14 3h-61l-11 2h-89v-14l-5 -61q0 -8 -3 -11l-3 -39v-50h120q39 3 64 -3v-25l-3 -8v-81q-3 -28 -3 -47l3 -217l3 -19v-50l2 -20v-33l3 -17l3 -64l3 -17v-30q5 -36 5 -61q0 -6 3 -20q0 -30 6 -50v-19l2 -9q0 -14 3 -22l3 -45h11q28 12 45 23l139 69l8 3q14 8 22 11l20 11
q0 20 -3 45l-3 16q0 26 -5 45v22q-6 28 -9 70l-3 19q0 17 -2 28l-6 92l-3 17l-2 33l-3 78l-3 14v39l-3 16v81l-3 11v111l14 3h78q39 -3 64 3l-11 30l-3 14l-8 25l-3 12l-22 69q-3 6 -8 6l-12 2q-50 -2 -83 6l3 17l8 114q6 16 6 30q0 9 2 11l6 48l3 11l5 30l3 12l6 19l33 106
l8 14q17 39 37 61q89 80 169 16q45 -114 3 -241l147 -120l25 78l3 83q6 181 -55 317l-3 6q-34 55 -67 86l-6 3l-25 19l-13 6q-25 14 -62 22h-80z" />
    <glyph glyph-name="g" unicode="g" horiz-adv-x="820" 
d="M-271 1218l-53 -21q-305 -202 -213 -569q70 -217 278 -284q258 -44 381 158l7 -6q19 -111 -24 -202q-357 -129 -265 -440q137 -296 474 -226q267 97 265 332q-7 255 -275 334q46 223 -109 378q63 346 -228 528q-14 3 -30 12l-53 15h-119zM-144 972q29 -26 44 -50
q103 -228 -47 -384q-144 -53 -173 197q-9 187 120 252q32 -3 56 -15zM367 -23q3 -126 -82 -199q-149 -56 -196 105q-47 188 117 258q144 -11 161 -164z" />
    <glyph glyph-name="h" unicode="h" horiz-adv-x="841" 
d="M46 1523l-46 -12l-17 -5q-26 -9 -46 -12l-9 -4l-25 -6v-26l6 -50v-26l7 -57q2 -38 5 -63l2 -44q6 -47 7 -79l5 -41q1 -32 4 -54l6 -47v-23q5 -47 6 -79l7 -53l-2 -10l9 -75q-1 -36 5 -61q2 -15 0 -25q9 -47 7 -79l7 -63v-19l8 -70l-1 -9l7 -63q0 -26 3 -45q7 -31 3 -54
l19 -148l79 4q18 -1 44 2l21 -1q44 -1 73 6l-1 29q-2 41 1 45q-2 19 0 48v22q-1 35 2 58q-2 204 71 360q32 48 73 76q56 -19 90 -56q33 -50 44 -97q4 -31 3 -73l1 -29l-10 -62q-2 -29 -11 -52l-6 -30l-6 -20l-78 -204q-15 -27 -21 -47l233 28q11 30 16 48.5t6 31.5
q7 17 13 40l8 33q6 20 7 36q7 16 10 39l11 56l6 23q13 62 14 85l7 36q2 35 5 55l2 9q-3 19 2 33l-1 28q-3 553 -556 245l-4 54l-3 25l1 16l-2 22q-6 47 -4 80l-10 101l1 16l-5 41l1 16l-5 66q-3 25 -2 41l-11 140l-38 -5q-17 -8 -48 -16z" />
    <glyph glyph-name="i" unicode="i" horiz-adv-x="357" 
d="M-253 1289q67 -73 160 -63q172 46 139 190q-59 141 -232 73q-120 -85 -67 -200zM-146 185l16 -2l23 -5q43 -3 102 -15q43 -10 77 -7l7 8l-7 117l3 17l-5 101l2 15l-5 110l2 24l-5 45l3 21l-4 45l2 8l-3 51l2 11l-5 110q4 39 -3 67l4 13l-5 46l2 14l-2 79l-107 32
q-20 10 -47 18l-40 10q-52 23 -90 27z" />
    <glyph glyph-name="j" unicode="j" horiz-adv-x="463" 
d="M-400 1340q24 -82 97 -115q154 3 149.5 174t-158.5 162q-120 -79 -88 -221zM-149 1111q-24 0 -39 -6h-9l-14 -3h-12l-74 -9l3 -9l15 -24l44 -117l3 -12l3 -15l3 -12l3 -17l12 -59q0 -9 3 -24l8 -74l3 -14l3 -50l3 -15l3 -83l3 -17v-62l3 -21v-88q3 -44 -3 -74
q6 -386 -404 -271l3 -15l9 -20l15 -30l9 -17l15 -33q8 -15 11 -23l18 -33q9 -23 18 -38l3 -9l23 -47h62l18 3l73 17q295 101 330 413l3 29l3 21v215q-6 38 -6 65l-5 29l-3 39l-6 20l-9 65q-3 6 -4.5 12t-4.5 21l-3 14l-18 83q-5 15 -8 38l-6 12v9l-24 82q-9 18 -12 33l-6 23
q-8 18 -11 33q-12 41 -30 67h-6z" />
    <glyph glyph-name="k" unicode="k" horiz-adv-x="1012" 
d="M-1235 1829l6 -20l16 -92q0 -8 3 -11l3 -14v-11q3 -17 5 -20q9 -66 20 -105l6 -28l2 -20l11 -61l3 -22l9 -45l8 -45l8 -44l3 -17q8 -22 8 -42l3 -5l3 -20l3 -19l11 -50l3 -17l3 -17l5 -33q3 -11 6 -31l11 -56l3 -13l2 -14l3 -17l11 -61l3 -12v-11l3 -16l5 -20l3 -17
l3 -19l3 -14l11 -56q0 -8 3 -11l3 -22l5 -31l3 -11l3 -17q2 -14 5 -28l11 -61l3 -19l14 -78q8 -28 11 -48l3 -25l6 -19v-12q2 -16 5 -19q0 -11 3 -28q8 -22 9.5 -40t4.5 -21q0 -11 3 -28l5 -22q3 -11 4.5 -19.5t4.5 -22.5q2 -25 8 -45l3 -14q3 -28 8 -47v-11q3 -6 6 -20
l2 -16l9 -48l3 -14l2 -11q0 -11 6 -28l3 -25l3 -16q8 0 11 2l42 45l13 17l67 69v64l-2 6v50l-3 17v56l-3 5v50l-3 14v59l-3 16q3 31 -2 51v30q-3 39 0 64l22 3l8 -8l67 -101l11 -14l53 -78l11 -13q11 -23 31 -45l31 -47l8 -12l11 -14l31 -47l5 -5l14 -20l20 -31l8 3l20 17
l16 11l12 8l11 9q14 8 16 14l48 33l11 8l28 23l5 3l14 11l31 22q0 8 -6 17l-14 11l-16 17l-6 2l-64 62l-8 5l-87 81l-14 11l-50 48l-11 8l-22 22l-9 6l-27 28l-6 2q-17 20 -33 31l-9 50l100 84q9 5 12 8q14 14 19 17l11 8l89 73l-2 25q0 22 -3 36l-6 100l-2 9v28l-3 8l-6 81
l-14 -11q-16 -23 -33 -37q-9 -8 -20 -22q-22 -19 -47 -50q-22 -20 -34 -36l-30 -31l-11.5 -15t-10.5 -10q-17 -14 -20 -20l-11 -14l-31 -30l-8 -11l-109 -117l-5 22v53l-3 8l-3 112l-3 22l-2 111l-3 12l-14 365q0 8 -3 11l-3 111l-3 20v50l-2 17v47l-3 11l-3 117l-3 8l-2 81
l-37 3q-28 -3 -50 3l-92 3l-5 2h-42l-17 3h-31q-16 3 -31.5 3t-26.5 3h-92v-25z" />
    <glyph glyph-name="l" unicode="l" horiz-adv-x="440" 
d="M-740 1789q6 -31 10 -62v-11q8 -42 9 -71l3 -13q2 -23 5 -54l6 -28l1 -17l2 -25l6 -25l-1 -9l6 -30l-1 -7q5 -24 6 -44l7 -45l2 -23l6 -45l2 -22q6 -39 11 -62l-1 -8l4 -23l-1 -8l4 -17q3 -31 9 -73l3 -25l9 -68l5 -25v-14q4 -34 9 -56l-1 -9q4 -34 9 -56q1 -34 6 -56
l2 -8q2 -23 5 -40l-1 -8l7 -34q-1 -8 3 -25l15 -124l5 -36l4 -20q3 -42 9 -70q-1 -23 5 -39q0 -26 4 -46l4 -31l5 -24v-12l2 -11l8 -62l3 -31l14 -63l8 1l57 4q28 3 49 1l41 9l-2 23l-1 127l-2 8v17l2 32l-1 17l-1 58v14q-2 11 -1 20t0.5 16.5t-0.5 21.5l-2 40l1 9l-1 57
l-1 17v70q-3 11 -2 37v11l-2 23q3 27 2 47v14q-3 25 -2 63l-1 72l-2 11v38v14v12q-3 45 -1 75q-2 11 -1 18.5t0 13t-1 12.5t2 10q-2 11 -3 29q3 23 -1 43l2 32l-1 17l-2 66q3 27 -1 46q2 18 -1 31q3 27 1 47v29q-5 36 -2 63q-2 23 0 40q-2 26 -1 46v15v14v14l-2 78l-1 14v32
q-1 43 -7 74l-18 -1h-14l-62 -8q-20 2 -37 -2l-12 1l-48 -5h-11q-22 -4 -40 -5h-28l-9 -2q-43 -1 -70 -9z" />
    <glyph glyph-name="m" unicode="m" horiz-adv-x="929" 
d="M894 1272l-281 -674l-309 537l-122 -895h210l52 274l259 -280l112 379l39 -333l272 55l-223 944l-5 -1z" />
    <glyph glyph-name="n" unicode="n" horiz-adv-x="654" 
d="M389 1135l-13 -2l-26 -7l-11 1q-24 -7 -39 -9q-29 -3 -45 -8q-21 -1 -40 -8l-10 -190l-3 -16l-9 -158q-1 -32 -5 -52l-9 -170l-12 17l-27 38q-7 8 -19 24l-10 14l-36 51q-8 9 -18 22l-34 49q-7 8 -17 24l-17 22l-24 35l-10 11l-27 38l-26 35l-8 11l-12 19q-12 14 -17 22
l-19 27q-12 19 -22 30l-5 8l-27 35q-14 25 -29 38l1 -28l2 -13l-1 -13l3 -37v-11q2 -15 3 -36v-11l1 -18l2 -18l1 -29v-8q3 -32 2 -52l2 -13l2 -19l1 -29v-36l3 -8l-1 -16l2 -10l2 -19q-2 -28 2 -47l-1 -18l2 -11v-10l4 -65l2 -19q-1 -13 1 -21l-1 -18l3 -8l-1 -16l2 -5
q-1 -16 -0.5 -30t3.5 -17l-1 -18l2 -6l3 -94l2 -10l2 -19q-2 -28 3 -47q-1 -15 0 -42l2 -5q0 -16 1 -39l2 -18l1 -19l2 -18l1 -29l16 2l13 2q31 1 76 6l13 2h11l15 1l45 6l8 -1l31 4l-1 18l-4 24q-2 26 -6 42l-8 53l1 10l-5 16q-1 24 -5 42q1 16 -4 26l1 11q-3 5 -5 18
l-7 58l-2 11q-2 10 -4 31l-2 11l-2 10q1 11 -4 27l-1 23l-2 16l7 -11l24 -43l5 -5l55 -95l8 -10l19 -30l5 -11l4 -5q15 -30 37 -60l4 -10q24 -36 51 -84l5 -5l26 -44l4 21l6 18q1 13 4 21l3 13q1 20 7 33v11l10 43l4 16l4 23l3 21l7 21v10l4 15l3 13l11 57q6 21 7 36l3 11
l3 15l11 52l4 18l3 18q6 20 7 36q3 8 7 21l3 15q1 16 4 18q0 11 4 26l3 21l4 18l6 18q1 13 4 26l6 25l1 8q6 21 7 36l3 8q4 29 10 47q1 20 7 36l4 26l4 13l3 12l7 37q0 7 3 10l1 10l6 29l4 18l7 36q6 20 5 39l-18 1q-22 -7 -56 -10z" />
    <glyph glyph-name="o" unicode="o" horiz-adv-x="792" 
d="M191 1098l-34 -17l-5 -5q-18 -10 -29 -20l-39 -37q-113 -154 -100 -320l10 -134q66 -290 318 -411q199 -57 325 81q116 152 103 320q-11 335 -268 516l-26 12l-19 10l-62 20l-19 2h-94zM386 773q112 -89 132 -212.5t-56 -203.5q-40 -18 -76 -9q-126 75 -145 200
q-31 120 32 211q29 21 57 28q32 -2 56 -14z" />
    <glyph glyph-name="p" unicode="p" horiz-adv-x="822" 
d="M-696 1242l161 -1665l346 113q-191 632 -139 606q96 1 245 84q172 130 162 342q-15 221 -164 352q-137 99 -277 44l-4 7l3 16l-2 7l-1 92l-331 23zM-202 870l3 -4q19 -20 27 -40q52 -215 -91 -338q-22 -6 -41 -2q-19 13 -32 29q-75 194 51 345l30 20q30 5 53 -10z" />
    <glyph glyph-name="q" unicode="q" horiz-adv-x="867" 
d="M-224 1238h-8l-63 -25l-86 -59q-242 -253 -209 -586q27 -239 217 -323q190 -46 328 95l3 -108q0 -16 2 -27v-52l3 -19v-49l3 -18v-44q0 -13 2 -22l3 -119l3 -16v-60l3 -13l2 -130l3 -11v-46l3 -25h19q8 0 10 3l28 3l10 2l60 9q22 5 37 6.5t28 3.5l54 9v46l-2 8l-3 51
l-3 19v19l-2 11v16q0 6 -3 19q0 33 -6 54l-2 60q-3 16 -3 27l-8 103l-3 19l-3 22l-5 81l-3 11q0 41 -5 68q-3 35 -3 46l-3 41l-2 8l-3 54l-3 19l-2 19v30l-3 5l-3 43l-3 19l-2 38q0 17 -3 41l-3 22v19l-2 8l-3 54l-3 8l3 8v17l3 8l2 114l-2 19l-3 19l-3 29l-30 106l-5 8
l-8 22l-25 43q-111 147 -279 125zM-135 882q65 -130 25 -257q-30 -125 -128 -187q-29 -8 -57 0q-29 19 -46 43q-92 247 90 420q27 14 38 17q49 0 78 -36z" />
    <glyph glyph-name="r" unicode="r" horiz-adv-x="603" 
d="M-532 981l-4 10l-18 148l-13 -4l-47 -18l-41 -19l-10 -3q-25 -11 -42 -16l-28 -11l-9 -6l-8 -1q-19 -10 -32 -15l-24 -10l-15 -5l9 -79l5 -20l5 -36l3 -7l13 -84l4 -10l13 -84l5 -17l5 -41l5 -20l3 -23q0 -8 3 -10l6 -46l4 -10l45 -287l5 -20l10 -77l33 4l5 3l40 10l10 4
q10 4 30 9l10 1l17 8l56 14q22 5 37 12l-70 570l11 14q12 9 19 18l19 15l7 4l12 9l12 9l114 63l10 4l41 21q8 1 10 4l10 3l12 5l25 10l12 4l40 13l-4 33l-4 13l-5 22l-2 18l-4 10q-2 18 -7 30l-4 18l-2 15l-3 5l-6 28l-9 4l-32 7l-84 -11q-144 -72 -208 -202z" />
    <glyph glyph-name="s" unicode="s" horiz-adv-x="887" 
d="M-29 953l-62 -46l-74 -203l2 -7l4 -8l2 -5l4 -8q5 -15 10 -23l8 -14l2 -2l23 -37l62 -65q144 -106 314 -124q16 -7 29 -9q48 -16 73 -45l-11 -11q-249 -130 -464 43l-3 -5q-6 -16 -13 -25l-8 -17l-3 -9l-6 -11q-8 -17 -15 -27q-2 -5 -9 -14l-10 -29q-8 -12 -12 -22
q-7 -11 -15 -27l-14 -24l-1 -4l-10 -16l6 -4q11 -3 12 -5l18 -6l12 -6l22 -6q17 -9 30 -12l59 -19q23 -7 39 -9q341 -91 595 96q10 14 18 21l12 14l1 5q8 10 11 19l3 4q7 15 14 24l5 13v5l3 9q0 3 2 10l3 35l-2 6l-1 24l-4 18l-2 7q-5 16 -10 26l-10 19l-6 12l-7 9l-5 6
l-20 24l-8 8l-8 6l-9 9l-52 36q-19 13 -33 19l-35 18q-8 4 -22 10l-10 3l-5 3l-48 18l-11 5l-34 11l-20 11q-7 2 -15 6l-10 5l-9 5q-12 7 -23 11q-35 21 -52 52l7 4q14 10 24 15l31 13l14 3h5l28 6l72 -1h6q16 -4 27 -4l22 -4l13 -2l62 -17q7 6 10 10l18 15q11 12 22 19
l58 49q6 8 12 10q6 7 11 10l6 8q9 6 14 15l25 29q-86 82 -190 108q-276 47 -494 -67z" />
    <glyph glyph-name="t" unicode="t" horiz-adv-x="717" 
d="M-1019 1617l-16 -6l-132 -45q-16 -7 -27 -8l-37 -15q1 -21 4 -36q3 -62 10 -99l1 -18l3 -24q0 -23 5 -57l1 -15l2 -36l2 -13l1 -13l9 -81l1 -13l2 -10l9 -99l-90 -33q-11 -2 -19 -5t-10 -5l-93 -31q-14 -6 -21 -8l-32 -10l-22 -253q16 6 29 8q24 10 42 14l37 12l19 6
q15 2 26 8l42 12l8 4l119 36q4 -10 4 -18l1 -16l4 -18q-1 -10 2 -26q-1 -13 1 -22t3 -22q0 -28 4 -46q0 -26 5 -65l1 -13l6 -52l1 -18l2 -36l1 -16q6 -21 5 -54l2 -13l6 -52l1 -16q0 -26 5 -60l1 -13l2 -15l5 -57l1 -21l1 -10l2 -13l-1 -10l1 -16l4 -18q-1 -10 0 -26
q6 -21 4 -39l34 5l37 12l13 1l11 5l126 35q1 8 0 23l-5 34l-2 31l-2 16l-1 13l-1 15l-1 16l-5 41q-2 5 -1.5 10.5t-0.5 18.5l-3 26l-2 8l-1 15l-1 18l-5 57l-2 16q-1 18 -1.5 25.5t-4.5 23.5l-1 18l-11 109q0 26 -5 60l-1 13l-5 57q0 8 -2 10l1 11q-2 5 -4 18l-1 18l-5 57
q22 14 38 20l43 22l21 11l19 11l22 11l13 6l6 5l45 22l6 5l19 8l1 13q2 20 0 33l-2 57v10q-2 6 -1 18l-2 26l-2 16l-1 18l-1 18l-1 18v29l-8 -2q-21 -6 -34 -13l-43 -19q-8 -2 -11 -4l-13 -4l-21 -11l-8 -2l-16 -7l-78 -34l-5 29q1 10 -1 18t-3 26l-1 18l-3 23q-1 24 -4 42
l1 8q-1 18 -3 33q-6 21 -4 39l-4 42l-2 8l-3 51l-2 11l-2 28q0 5 -1 18q-4 16 -3 26l-4 44l-2 8l-1 16l-3 31q-4 5 -12 6z" />
    <glyph glyph-name="u" unicode="u" horiz-adv-x="835" 
d="M219 1148l3 -50q0 -17 1 -29l3 -235q-3 -22 -3 -37l-1 -28q0 -18 -3 -45l-3 -5v-9q-5 -21 -8 -50l-5 -15l-3 -13l-5 -21q-5 -12 -5 -20l-3 -5q-16 -47 -44 -76l-29 -21q-29 -7 -52 0q-21 10 -34 23l-21 35l-11 35q-8 24 -8 39l-1 8l-3 20v40q-5 32 -3 54l3 4v53q3 6 3 20
q0 10 1 17l3 43l3 9l2 24l3 21l3 20l8 57l3 10q7 26 4 46l-47 -12l-10 -5l-115 -30q-15 -8 -29 -9l-18 -5l-18 -6q-5 0 -16 -5l-42 -10v-173l3 -4q-3 -23 2 -39q0 -18 3 -30v-24l3 -9l3 -16q0 -23 5 -38q0 -18 3 -31q2 -4 2 -15l6 -22v-7l1 -12l9 -24v-7l8 -33l15 -43l3 -9
l5 -15l23 -55q45 -82 123 -130q29 -11 49 -15h87l29 9q23 6 39 15l23 11q86 26 139 76l3 4l41 53q13 15 26 41l23 54q8 13 16 37v7l16 47q2 18 10 41l3 16l3 15l5 29v6l7 50l6 75l2 10v251l-2 6v21l-3 16q0 15 -3 39h-242q0 -13 3 -15z" />
    <glyph glyph-name="v" unicode="v" horiz-adv-x="734" 
d="M901 1250q-20 0 -32 -5l-53 -7l-10 -3l-17 -2l-20 -3l-17 -2q-27 -3 -44 -8l-2 -21q0 -13 -3 -25q-2 -15 -5 -34l-2 -20v-14q-5 -29 -5 -49l-2 -7q0 -15 -3 -27l-7 -66l-3 -15l-2 -31l-2 -17l-3 -18l-2 -17q0 -26 -5 -43l-3 -27l-2 -17q0 -20 -5 -49q0 -12 -2 -20
q0 -22 -5 -39v-14l-3 -8q0 -27 -5 -44l-31 103l-3 10l-2 14l-27 86v7l-22 68q0 5 -5 17q-7 34 -14 54l-8 27l-2 10l-5 12q-5 22 -10 34l-2 7q-5 27 -12 44l-3 12l-2 10l-8 17q-5 27 -12 44l-17 -2l-49 -3l-12 -2h-12l-7 -3l-47 -2l-5 -3q-17 0 -29 -2h-19l-8 -2h-17l-5 -3
q-17 0 -44 -2l15 -44q7 -15 10 -17l27 -61l7 -15q5 -15 12 -24l3 -8q7 -19 14 -31l12 -27q5 -12 10 -20l20 -44q5 -12 9 -19l8 -15q7 -22 17 -36l2 -8q8 -19 15 -31l39 -83l2 -10l15 -27l5 -15l14 -29q3 -7 5 -10l8 -19l14 -27q8 -19 15 -32l12 -29l5 -12l5 -7l15 -35
q7 -12 9 -19l44 -95q5 -15 12 -25l5 -14l5 -8l7 -14l5 -15l10 -17q12 -34 29 -56l25 73v7q7 15 10 27l36 122q7 17 10 32l22 71q12 31 17 53l24 78l3 10l14 42l3 9l63 208l3 10q14 39 19 61l3 4l34 113l2 9l8 25l2 10q7 17 12 39l10 24q2 17 7 27q13 34 15 56h-27z" />
    <glyph glyph-name="w" unicode="w" horiz-adv-x="1042" 
d="M591 1041q-4 -16 -12 -26l-23 -53q-6 -6 -7 -12.5t-4.5 -14t-7.5 -10.5l-6 -17l-11 -20l-7 -14q-7 -22 -17 -37l-5 -11l-13 -31l-5 -9l-12 -25l-20 -45q-7 -12 -9 -25q-15 19 -19 38l-6 14l-5 12l-21 45q-3 5 -4.5 11t-6.5 17l-15 30q-1 7 -7 18l-5 14q-12 18 -16 34
l-4 7l-11 28q-10 0 -17.5 -0.5t-15 -2t-10.5 0.5l-17 -2l-17 -1l-18 -2q-14 -3 -39 -4l-22 -3h-13l-27 -4l-8 1q-14 -3 -17 -1l-17 -2l-18 -1l-27 -4l4 -14l22 -41l3 -4l5 -11l13 -23l6 -14l70 -130q6 -14 13 -22q1 -5 6 -16l12 -18q6 -16 14 -27l66 -121q11 -26 22 -43
l15 -30l12 -22l5 -11l9 -14q9 -20 17 -31q2 -7 9 -18q13 -22 19 -39l8 -11l27 -51l8 -14l24 -47l192 489q306 -491 310 -489q144 558 158 620l13 53l19 70q7 37 19 80q5 14 27.5 91t20.5 118l-60 -12q-7 -2 -10 0l-32 -7l-14 -1l-54 -10l-17 -1l-70 -16l-1 -18l-33 -228
l-29 -191q-7 -37 -7 -57l-28 44q-11 15 -16 27q-11 12 -16 24l-39 62l-5 9l-40 64l-5 9l-36 59q-11 13 -16 25l-57 93h-7q-9 -19 -14 -28z" />
    <glyph glyph-name="x" unicode="x" horiz-adv-x="747" 
d="M62 1079l-7 -7l-11 -14l-66 -82l-6 -10l-9 -11q-14 -14 -21 -26l-27 -35l-4 -4q-20 -25 -25 -33l-4 -4l-32 -41v-10l5 -3l15 -18l3 -4l9 -10l9 -11l15 -16l7 -8l9 -11l5 -4l6 -8l32 -37l4 -4q9 -14 21 -24q11 -15 22 -25l14 -17l18 -20l6 -8l18 -21l7 -6q9 -14 18 -22
l9 -11l5 -4l47 -53l-45 -60l-2 -4l-23 -29q-9 -16 -18 -26l-29 -41l-7 -8l-29 -42l-5 -4l-11 -16l-40 -55l-3 -11l7 -8l5 -8l4 -4l45 -62l7 -2l7 6l2 4l88 85q4 6 13 16l11 10l3 4l24 23l5 6q13 12 20 19l14 14q15 14 24 25l41 41l7 -5l54 -63l9 -10q13 -13 20 -23
q4 -4 11 -12l7 -7l7 -10q11 -10 18 -20l9 -9l9 -12l6 -6q3 -6 7 -8l7 -8q11 -15 22 -25l36 -43h7q14 8 16 12q29 27 43 35q22 17 33 33l-6 14l-7 11l-7 14q-7 10 -9 16l-40 80l-7 11l-11 24l-14 27l-4 6l-32 64l-7 12l-29 57l20 19l3 4l11 10q13 15 22 23l12 12l9 10l42 41
l3 3l24 24l5 6l11 9l2 4l25 24l7 8l13 13l57 55q13 17 27 27v14l-7 27l-9 23l-2 14l-12 31l-2 10l-4 12q-3 15 -9 33q-7 25 -12 33l-9 31l-2 8l-7 25l-6 22q-7 17 -9 31l-7 -4l-41 -54l-2 -6l-25 -31l-2 -6l-47 -65q-16 -17 -23 -31l-4 -4l-9 -13q-14 -16 -20 -28l-61 -84
l-7 -7l-4 -8l-5 -4l-7 -10l-15 -23l-5 -4l-18 -27l-4 3l-14 30q-4 6 -6.5 11.5t-4.5 7.5l-38 78l-5 6l-9 20l-4 5q0 4 -7 14l-18 37l-7 12q-11 27 -22 43l-3 6l-42 81l-7 14l-5 10q-11 19 -15 33q-7 10 -9 18l-9 4z" />
    <glyph glyph-name="y" unicode="y" horiz-adv-x="494" 
d="M589 1236l-25 -9q-7 -4 -23 -9l-25 -11l-16 -7l-20 -7l-126 -53q0 -6 -2 -9q-3 -13 -7 -23q0 -6 -2 -9v-7l-23 -75l-3 -14l-25 -91l-2 -5l-27 -103q-7 -18 -10 -32l-9 -27v-7q-7 -14 -7 -27l-6 13l-19 53l-2 11l-41 122l-7 20l-14 39l-16 48l-7 -2l-150 -92
q-14 -7 -23 -13l-62 -37q0 -9 7 -23l23 -36l4 -12l5 -4l46 -80l6 -12l12 -20q7 -16 14 -26l11 -18q7 -18 16 -27l11 -23l7 -9q7 -16 14 -25l48 -83l-7 -18l-2 -9l-5 -12q-4 -27 -13 -45v-7l-21 -62q0 -7 -2 -9l-3 -11l-2 -10q-7 -13 -9 -25.5t-9 -31.5l-2 -9l-26 -80v-7
q-9 -20 -11 -36l-46 -149l-2 -9l-5 -14q-4 -20 -11 -36l-7 -30l-14 -46q-11 -29 -16 -50l5 -5q16 -9 25 -18l23 -16l14 -11l39 -28l4 -4l14 -9l4 -5l21 -14q25 -25 53 -34l4 14l2 9l5 16l2 9l7 21l5 9l2 13q7 14 9 26l18 54q5 21 12 37l2 11l2 10q7 13 10 25l64 199
q4 20 16 52l36 114q5 21 12 37l48 153l2 9l27 83l3 9l2 11l4 9l21 64q5 21 11 37l23 71v7l5 9l16 52l2 5l30 96l2 4l62 199l2 9l5 10l23 73q11 32 13 52h-9z" />
    <glyph glyph-name="z" unicode="z" horiz-adv-x="600" 
d="M327 1098h-7l-44 -5q-7 -2 -18 -4l-15 -2l-48 -7h-7l-44 -6q-19 -4 -24.5 -4.5t-21.5 -2.5l-17 -2q-9 -2 -16.5 -3t-18.5 -3l-16 -2l-48 -7l-15 -2l-16 -2l-13 -1l-26 -4l-11 -2h-11l-16 -4l-37 -3q-4 -2 -9.5 -3t-21.5 -3l-17 -2q-9 -2 -16.5 -2.5t-18.5 -2.5l-16 -2
l-48 -8v-138l2 -4v-57q0 -13 2 -22l3 -92l13 1q13 4 24 4q20 6 48 9l16 4l35 6q4 1 15 3l15 2q29 8 49 8l-9 -21q-2 -13 -7 -22l-2 -4l-44 -125l-2 -8l-7 -16l-2 -8l-20 -51v-6l-6 -13q-4 -20 -11 -33l-2 -7l-18 -46l-2 -10q-7 -14 -9 -24l-15 -40l-2 -10l-7 -16l-7 -17
q-4 -22 -13 -37l-4 -16q11 0 17 2l194 51l11 2l22 6q15 5 26 7l22 6l50 14q7 0 9 2l20 6l9 2l11 1l8 4l36 9l8 2l24 8q20 3 36 9l8 2l71 18l-3 20l-2 10l-2 9l-2 11l-7 41q-4 11 -4 20l-5 18v6q-4 15 -4 26l-2 5q-2 21 -7 33q-2 17 -9 28l-13 -9l-50 -30l-5 -3l-76 -46
q-7 -4 -11.5 -8t-13.5 -7l-11 -8l-35 -20q-15 -11 -26 -17l-31 -18l-8 -6l-11 -7l-14 -7l-4 -2q-26 -20 -48 -28l6 11l53 81q2 8 6.5 12.5t8.5 13.5l49 74l2 6q6 11 9 13l8 13l3 5q6 9 8 15l9 13q7 9 9 15l33 51q11 13 15 24l11 15l2 6q7 9 9 14l24 37l13 21l40 62l7 11
l19 30l7 11l6 11l7 11l20 30q2 5 4 7l42 67q24 33 33 57h-22z" />
    <glyph glyph-name="braceleft" unicode="{" horiz-adv-x="420" 
 />
    <glyph glyph-name="bar" unicode="|" horiz-adv-x="201" 
 />
    <glyph glyph-name="braceright" unicode="}" horiz-adv-x="360" 
 />
    <glyph glyph-name="asciitilde" unicode="~" 
 />
    <glyph glyph-name="Adieresis" unicode="&#xc4;" horiz-adv-x="609" 
 />
    <glyph glyph-name="Aring" unicode="&#xc5;" horiz-adv-x="609" 
 />
    <glyph glyph-name="Ccedilla" unicode="&#xc7;" horiz-adv-x="729" 
 />
    <glyph glyph-name="Eacute" unicode="&#xc9;" horiz-adv-x="648" 
 />
    <glyph glyph-name="Ntilde" unicode="&#xd1;" horiz-adv-x="612" 
 />
    <glyph glyph-name="Odieresis" unicode="&#xd6;" horiz-adv-x="696" 
 />
    <glyph glyph-name="Udieresis" unicode="&#xdc;" horiz-adv-x="660" 
 />
    <glyph glyph-name="aacute" unicode="&#xe1;" horiz-adv-x="369" 
 />
    <glyph glyph-name="agrave" unicode="&#xe0;" horiz-adv-x="369" 
 />
    <glyph glyph-name="acircumflex" unicode="&#xe2;" horiz-adv-x="369" 
 />
    <glyph glyph-name="adieresis" unicode="&#xe4;" horiz-adv-x="369" 
 />
    <glyph glyph-name="atilde" unicode="&#xe3;" horiz-adv-x="369" 
 />
    <glyph glyph-name="aring" unicode="&#xe5;" horiz-adv-x="369" 
 />
    <glyph glyph-name="ccedilla" unicode="&#xe7;" horiz-adv-x="510" 
 />
    <glyph glyph-name="eacute" unicode="&#xe9;" horiz-adv-x="486" 
 />
    <glyph glyph-name="egrave" unicode="&#xe8;" horiz-adv-x="486" 
 />
    <glyph glyph-name="ecircumflex" unicode="&#xea;" horiz-adv-x="486" 
 />
    <glyph glyph-name="edieresis" unicode="&#xeb;" horiz-adv-x="486" 
 />
    <glyph glyph-name="iacute" unicode="&#xed;" horiz-adv-x="234" 
 />
    <glyph glyph-name="igrave" unicode="&#xec;" horiz-adv-x="234" 
 />
    <glyph glyph-name="icircumflex" unicode="&#xee;" horiz-adv-x="234" 
 />
    <glyph glyph-name="idieresis" unicode="&#xef;" horiz-adv-x="234" 
 />
    <glyph glyph-name="ntilde" unicode="&#xf1;" horiz-adv-x="384" 
 />
    <glyph glyph-name="oacute" unicode="&#xf3;" horiz-adv-x="366" 
 />
    <glyph glyph-name="ograve" unicode="&#xf2;" horiz-adv-x="366" 
 />
    <glyph glyph-name="ocircumflex" unicode="&#xf4;" horiz-adv-x="366" 
 />
    <glyph glyph-name="odieresis" unicode="&#xf6;" horiz-adv-x="366" 
 />
    <glyph glyph-name="otilde" unicode="&#xf5;" horiz-adv-x="366" 
 />
    <glyph glyph-name="uacute" unicode="&#xfa;" horiz-adv-x="342" 
 />
    <glyph glyph-name="ugrave" unicode="&#xf9;" horiz-adv-x="342" 
 />
    <glyph glyph-name="ucircumflex" unicode="&#xfb;" horiz-adv-x="342" 
 />
    <glyph glyph-name="udieresis" unicode="&#xfc;" horiz-adv-x="342" 
 />
    <glyph glyph-name="dagger" unicode="&#x2020;" horiz-adv-x="451" 
 />
    <glyph glyph-name="degree" unicode="&#xb0;" horiz-adv-x="285" 
 />
    <glyph glyph-name="cent" unicode="&#xa2;" 
 />
    <glyph glyph-name="sterling" unicode="&#xa3;" 
 />
    <glyph glyph-name="section" unicode="&#xa7;" horiz-adv-x="420" 
 />
    <glyph glyph-name="bullet" unicode="&#x2022;" horiz-adv-x="387" 
 />
    <glyph glyph-name="paragraph" unicode="&#xb6;" horiz-adv-x="450" 
 />
    <glyph glyph-name="germandbls" unicode="&#xdf;" horiz-adv-x="498" 
 />
    <glyph glyph-name="registered" unicode="&#xae;" horiz-adv-x="747" 
 />
    <glyph glyph-name="copyright" unicode="&#xa9;" horiz-adv-x="714" 
 />
    <glyph glyph-name="trademark" unicode="&#x2122;" horiz-adv-x="681" 
 />
    <glyph glyph-name="acute" unicode="&#xb4;" horiz-adv-x="462" 
 />
    <glyph glyph-name="dieresis" unicode="&#xa8;" horiz-adv-x="371" 
 />
    <glyph glyph-name="AE" unicode="&#xc6;" horiz-adv-x="819" 
 />
    <glyph glyph-name="Oslash" unicode="&#xd8;" horiz-adv-x="696" 
 />
    <glyph glyph-name="plusminus" unicode="&#xb1;" 
 />
    <glyph glyph-name="yen" unicode="&#xa5;" 
 />
    <glyph glyph-name="mu" unicode="&#xb5;" horiz-adv-x="420" 
 />
    <glyph glyph-name="mu" unicode="&#x3bc;" horiz-adv-x="420" 
 />
    <glyph glyph-name="ordfeminine" unicode="&#xaa;" horiz-adv-x="402" 
 />
    <glyph glyph-name="ordmasculine" unicode="&#xba;" horiz-adv-x="402" 
 />
    <glyph glyph-name="ae" unicode="&#xe6;" horiz-adv-x="747" 
 />
    <glyph glyph-name="oslash" unicode="&#xf8;" horiz-adv-x="366" 
 />
    <glyph glyph-name="questiondown" unicode="&#xbf;" horiz-adv-x="567" 
 />
    <glyph glyph-name="exclamdown" unicode="&#xa1;" horiz-adv-x="309" 
 />
    <glyph glyph-name="logicalnot" unicode="&#xac;" horiz-adv-x="1395" 
 />
    <glyph glyph-name="florin" unicode="&#x192;" horiz-adv-x="576" 
 />
    <glyph glyph-name="guillemotleft" unicode="&#xab;" horiz-adv-x="540" 
 />
    <glyph glyph-name="guillemotright" unicode="&#xbb;" horiz-adv-x="540" 
 />
    <glyph glyph-name="ellipsis" unicode="&#x2026;" horiz-adv-x="792" 
 />
    <glyph glyph-name="nonbreakingspace" unicode="&#xa0;" horiz-adv-x="498" 
 />
    <glyph glyph-name="Agrave" unicode="&#xc0;" horiz-adv-x="609" 
 />
    <glyph glyph-name="Atilde" unicode="&#xc3;" horiz-adv-x="609" 
 />
    <glyph glyph-name="Otilde" unicode="&#xd5;" horiz-adv-x="696" 
 />
    <glyph glyph-name="OE" unicode="&#x152;" horiz-adv-x="954" 
 />
    <glyph glyph-name="oe" unicode="&#x153;" horiz-adv-x="756" 
 />
    <glyph glyph-name="endash" unicode="&#x2013;" horiz-adv-x="684" 
 />
    <glyph glyph-name="emdash" unicode="&#x2014;" horiz-adv-x="894" 
 />
    <glyph glyph-name="quotedblleft" unicode="&#x201c;" horiz-adv-x="342" 
 />
    <glyph glyph-name="quotedblright" unicode="&#x201d;" horiz-adv-x="300" 
 />
    <glyph glyph-name="quoteleft" unicode="&#x2018;" horiz-adv-x="237" 
 />
    <glyph glyph-name="quoteright" unicode="&#x2019;" horiz-adv-x="240" 
 />
    <glyph glyph-name="divide" unicode="&#xf7;" 
 />
    <glyph glyph-name="ydieresis" unicode="&#xff;" horiz-adv-x="393" 
 />
    <glyph glyph-name="Ydieresis" unicode="&#x178;" horiz-adv-x="526" 
 />
    <glyph glyph-name="currency" unicode="&#xa4;" horiz-adv-x="420" 
 />
    <glyph glyph-name="guilsinglleft" unicode="&#x2039;" horiz-adv-x="321" 
 />
    <glyph glyph-name="guilsinglright" unicode="&#x203a;" horiz-adv-x="321" 
 />
    <glyph glyph-name="daggerdbl" unicode="&#x2021;" horiz-adv-x="336" 
 />
    <glyph glyph-name="periodcentered" unicode="&#xb7;" horiz-adv-x="207" 
 />
    <glyph glyph-name="periodcentered" unicode="&#x2219;" horiz-adv-x="207" 
 />
    <glyph glyph-name="quotesinglbase" unicode="&#x201a;" horiz-adv-x="234" 
 />
    <glyph glyph-name="quotedblbase" unicode="&#x201e;" horiz-adv-x="402" 
 />
    <glyph glyph-name="perthousand" unicode="&#x2030;" horiz-adv-x="729" 
 />
    <glyph glyph-name="Acircumflex" unicode="&#xc2;" horiz-adv-x="609" 
 />
    <glyph glyph-name="Ecircumflex" unicode="&#xca;" horiz-adv-x="648" 
 />
    <glyph glyph-name="Aacute" unicode="&#xc1;" horiz-adv-x="609" 
 />
    <glyph glyph-name="Edieresis" unicode="&#xcb;" horiz-adv-x="648" 
 />
    <glyph glyph-name="Egrave" unicode="&#xc8;" horiz-adv-x="648" 
 />
    <glyph glyph-name="Iacute" unicode="&#xcd;" horiz-adv-x="234" 
 />
    <glyph glyph-name="Icircumflex" unicode="&#xce;" horiz-adv-x="234" 
 />
    <glyph glyph-name="Idieresis" unicode="&#xcf;" horiz-adv-x="234" 
 />
    <glyph glyph-name="Igrave" unicode="&#xcc;" horiz-adv-x="234" 
 />
    <glyph glyph-name="Oacute" unicode="&#xd3;" horiz-adv-x="696" 
 />
    <glyph glyph-name="Ocircumflex" unicode="&#xd4;" horiz-adv-x="696" 
 />
    <glyph glyph-name="Ograve" unicode="&#xd2;" horiz-adv-x="696" 
 />
    <glyph glyph-name="Uacute" unicode="&#xda;" horiz-adv-x="660" 
 />
    <glyph glyph-name="Ucircumflex" unicode="&#xdb;" horiz-adv-x="660" 
 />
    <glyph glyph-name="Ugrave" unicode="&#xd9;" horiz-adv-x="660" 
 />
    <glyph glyph-name="circumflex" unicode="&#x2c6;" horiz-adv-x="360" 
 />
    <glyph glyph-name="tilde" unicode="&#x2dc;" horiz-adv-x="483" 
 />
    <glyph glyph-name="macron" unicode="&#xaf;" horiz-adv-x="360" 
 />
    <glyph glyph-name="macron" unicode="&#x2c9;" horiz-adv-x="360" 
 />
    <glyph glyph-name="cedilla" unicode="&#xb8;" horiz-adv-x="321" 
 />
    <glyph glyph-name="Scaron" unicode="&#x160;" horiz-adv-x="621" 
 />
    <glyph glyph-name="scaron" unicode="&#x161;" horiz-adv-x="342" 
 />
    <glyph glyph-name="brokenbar" unicode="&#xa6;" horiz-adv-x="201" 
 />
    <glyph glyph-name="Eth" unicode="&#xd0;" horiz-adv-x="663" 
 />
    <glyph glyph-name="eth" unicode="&#xf0;" horiz-adv-x="483" 
 />
    <glyph glyph-name="Yacute" unicode="&#xdd;" horiz-adv-x="526" 
 />
    <glyph glyph-name="yacute" unicode="&#xfd;" horiz-adv-x="393" 
 />
    <glyph glyph-name="Thorn" unicode="&#xde;" horiz-adv-x="576" 
 />
    <glyph glyph-name="thorn" unicode="&#xfe;" horiz-adv-x="348" 
 />
    <glyph glyph-name="minus" unicode="&#xad;" 
 />
    <glyph glyph-name="minus" unicode="&#x2212;" 
 />
    <glyph glyph-name="multiply" unicode="&#xd7;" 
 />
    <glyph glyph-name="onesuperior" unicode="&#xb9;" horiz-adv-x="300" 
 />
    <glyph glyph-name="twosuperior" unicode="&#xb2;" horiz-adv-x="300" 
 />
    <glyph glyph-name="threesuperior" unicode="&#xb3;" horiz-adv-x="300" 
 />
    <glyph glyph-name="onehalf" unicode="&#xbd;" horiz-adv-x="786" 
 />
    <glyph glyph-name="onequarter" unicode="&#xbc;" horiz-adv-x="786" 
 />
    <glyph glyph-name="threequarters" unicode="&#xbe;" horiz-adv-x="786" 
 />
    <glyph glyph-name="Lslash" unicode="&#x141;" horiz-adv-x="570" 
 />
    <glyph glyph-name="lslash" unicode="&#x142;" horiz-adv-x="213" 
 />
    <glyph glyph-name="Zcaron" unicode="&#x17d;" horiz-adv-x="690" 
 />
    <glyph glyph-name="zcaron" unicode="&#x17e;" horiz-adv-x="462" 
 />
    <glyph glyph-name="notequal" unicode="&#x2260;" 
 />
    <glyph glyph-name="infinity" unicode="&#x221e;" horiz-adv-x="669" 
 />
    <glyph glyph-name="lessequal" unicode="&#x2264;" horiz-adv-x="342" 
 />
    <glyph glyph-name="greaterequal" unicode="&#x2265;" horiz-adv-x="342" 
 />
    <glyph glyph-name="partialdiff" unicode="&#x2202;" horiz-adv-x="483" 
 />
    <glyph glyph-name="summation" unicode="&#x2211;" horiz-adv-x="1398" 
 />
    <glyph glyph-name="product" unicode="&#x220f;" horiz-adv-x="798" 
 />
    <glyph glyph-name="pi" unicode="&#x3c0;" horiz-adv-x="798" 
 />
    <glyph glyph-name="integral" unicode="&#x222b;" horiz-adv-x="1398" 
 />
    <glyph glyph-name="Omega" unicode="&#x3a9;" horiz-adv-x="1443" 
 />
    <glyph glyph-name="Omega" unicode="&#x2126;" horiz-adv-x="1443" 
 />
    <glyph glyph-name="radical" unicode="&#x221a;" horiz-adv-x="819" 
 />
    <glyph glyph-name="approxequal" unicode="&#x2248;" 
 />
    <glyph glyph-name="approxequal" unicode="&#x22f2;" 
 />
    <glyph glyph-name="Delta" unicode="&#x394;" horiz-adv-x="366" 
 />
    <glyph glyph-name="Delta" unicode="&#x2206;" horiz-adv-x="366" 
 />
    <glyph glyph-name="lozenge" unicode="&#x25ca;" horiz-adv-x="243" 
 />
    <glyph glyph-name="fraction" unicode="&#x2044;" horiz-adv-x="234" 
 />
    <glyph glyph-name="fi" unicode="&#xf001;" horiz-adv-x="525" 
 />
    <glyph glyph-name="fl" unicode="&#xf002;" horiz-adv-x="480" 
 />
    <glyph glyph-name="apple" unicode="&#xf000;" horiz-adv-x="588" 
 />
    <glyph glyph-name="dotlessi" unicode="&#x131;" horiz-adv-x="234" 
 />
    <glyph glyph-name="breve" unicode="&#x2d8;" horiz-adv-x="360" 
 />
    <glyph glyph-name="dotaccent" unicode="&#x2d9;" horiz-adv-x="183" 
 />
    <glyph glyph-name="ring" unicode="&#x2da;" horiz-adv-x="360" 
 />
    <glyph glyph-name="hungarumlaut" unicode="&#x2dd;" horiz-adv-x="468" 
 />
    <glyph glyph-name="ogonek" unicode="&#x2db;" horiz-adv-x="270" 
 />
    <glyph glyph-name="caron" unicode="&#x2c7;" horiz-adv-x="360" 
 />
  </font>
</defs>
</svg>
